<?xml version="1.0" encoding="UTF-8" standalone="no"?>
<!DOCTYPE svg PUBLIC "-//W3C//DTD SVG 1.1//EN" "http://www.w3.org/Graphics/SVG/1.1/DTD/svg11.dtd">
<svg width="100%" height="100%" viewBox="0 0 605 600" version="1.1" xmlns="http://www.w3.org/2000/svg" xmlns:xlink="http://www.w3.org/1999/xlink" xml:space="preserve" xmlns:serif="http://www.serif.com/" style="fill-rule:evenodd;clip-rule:evenodd;stroke-linejoin:round;stroke-miterlimit:2;">
    <g transform="matrix(4.16667,0,0,4.16667,-3895.83,-300)">
        <g>
            <g transform="matrix(1,0,0,1,-80.452,-176.187)">
                <path d="M1086.36,350.856L1081.36,350.836C1081.4,340.544 1075.79,332.296 1071.06,327.187L1074.74,323.794C1082.38,332.066 1086.4,341.423 1086.36,350.856Z" style="fill:rgb(0,148,68);fill-rule:nonzero;"/>
            </g>
            <g transform="matrix(1,0,0,1,-80.452,-176.187)">
                <path d="M1079.59,333.928L1079.47,334.004C1076.1,336.163 1054.35,336.522 1042.36,320.687C1034.75,310.626 1034.06,295.553 1034.59,285.721C1034.73,283.187 1036.02,280.964 1037.91,279.474C1039.96,277.82 1042.7,277.047 1045.39,277.716C1054.54,279.998 1067.93,284.873 1075.4,294.763C1087.53,310.787 1083.34,331.102 1079.59,333.928Z" style="fill:rgb(0,148,68);fill-rule:nonzero;"/>
            </g>
            <g transform="matrix(1,0,0,1,-80.452,-176.187)">
                <path d="M1079.59,333.928L1079.47,334.004C1073.16,311.071 1047.42,287.548 1037.91,279.474C1039.96,277.82 1042.7,277.047 1045.39,277.716C1054.54,279.998 1067.93,284.873 1075.4,294.763C1087.53,310.787 1083.34,331.102 1079.59,333.928Z" style="fill:rgb(57,181,74);fill-rule:nonzero;"/>
            </g>
            <g transform="matrix(1,0,0,1,-80.452,-176.187)">
                <path d="M1065.45,307.201C1065.55,305.895 1065.9,304.604 1066.5,303.443C1066.9,302.67 1067.43,301.891 1067.86,301.103C1068.87,299.235 1069.38,297.125 1069.33,295.001L1068.58,295.019C1068.62,297.013 1068.15,298.993 1067.2,300.747C1066.77,301.549 1066.27,302.25 1065.83,303.099C1065.31,304.103 1064.96,305.199 1064.79,306.318C1063.71,304.883 1062.64,303.555 1061.6,302.409C1057.95,298.379 1054.3,294.415 1050.49,290.573C1050.15,289.378 1050.65,288.214 1051.22,286.924C1051.75,285.715 1052.3,284.465 1052.12,283.089L1051.38,283.182C1051.53,284.353 1051.04,285.455 1050.53,286.623C1050.02,287.784 1049.66,288.652 1049.64,289.723C1044.73,284.831 1040.28,281.373 1039.05,280.449L1038.84,280.726C1040,281.593 1052.94,294.435 1057.44,299.338C1051.32,302.063 1046.97,299.515 1043.48,298.902C1041.22,298.504 1039.23,298.863 1037.88,299.911L1038.34,300.504C1040.7,298.67 1044.19,299.777 1046.16,300.359C1047.86,300.863 1049.41,301.324 1051.64,301.324C1053.82,301.324 1056,300.845 1057.98,299.922C1058.94,300.971 1059.9,302.024 1060.86,303.082C1063.4,305.886 1066.13,309.711 1068.73,313.87C1064.86,316.394 1059.87,315.676 1054.93,315.197C1054.73,314.196 1053.27,311.268 1050.99,309.464C1049.17,308.028 1046.93,307.301 1044.83,307.477L1044.89,308.224C1046.8,308.068 1048.85,308.733 1050.52,310.053C1052.2,311.378 1053.5,313.396 1054.13,315.121C1049.78,314.716 1048.8,314.838 1045.3,317.067L1045.7,317.7C1049.37,315.365 1049.92,315.463 1055.64,316.02C1060.36,316.48 1065.2,317.05 1069.12,314.508C1071.61,318.563 1073.96,322.891 1075.87,326.889C1074.39,326.172 1072.45,325.707 1071.98,325.658C1069.88,325.433 1066.3,326.368 1064.86,326.78C1063.02,327.311 1061.18,327.924 1059.47,327.481L1059.28,328.207C1061.2,328.701 1063.14,328.057 1065.07,327.501C1066.47,327.101 1069.93,326.201 1071.9,326.404C1073.09,326.53 1075.44,327.369 1076.42,328.064C1077.45,330.262 1078.33,332.34 1079,334.176L1079.94,333.832C1077.21,326.403 1071.26,315.172 1065.45,307.201Z" style="fill:rgb(163,204,98);fill-rule:nonzero;"/>
            </g>
            <g transform="matrix(1,0,0,1,-80.452,-176.187)">
                <path d="M1087.97,362.187C1087.93,352.753 1091.95,343.395 1099.59,335.124L1103.26,338.516C1098.54,343.624 1092.93,351.874 1092.97,362.166L1087.97,362.187Z" style="fill:rgb(0,148,68);fill-rule:nonzero;"/>
            </g>
            <g transform="matrix(1,0,0,1,-80.452,-176.187)">
                <path d="M1094.74,345.257L1094.86,345.334C1098.23,347.492 1119.98,347.851 1131.96,332.017C1139.57,321.955 1140.27,306.883 1139.73,297.051C1139.59,294.516 1138.3,292.294 1136.42,290.804C1134.37,289.149 1131.62,288.377 1128.94,289.046C1119.79,291.327 1106.4,296.203 1098.92,306.092C1086.79,322.117 1090.99,342.432 1094.74,345.257Z" style="fill:rgb(57,181,74);fill-rule:nonzero;"/>
            </g>
            <g transform="matrix(1,0,0,1,-80.452,-176.187)">
                <path d="M1094.74,345.257L1094.86,345.334C1101.17,322.4 1126.91,298.878 1136.42,290.804C1134.37,289.149 1131.62,288.377 1128.94,289.046C1119.79,291.327 1106.4,296.203 1098.92,306.092C1086.79,322.117 1090.99,342.432 1094.74,345.257Z" style="fill:rgb(0,148,68);fill-rule:nonzero;"/>
            </g>
            <g transform="matrix(1,0,0,1,-80.452,-176.187)">
                <path d="M1125.47,311.628C1122.59,312.207 1119.56,311.86 1116.88,310.668C1121.31,305.849 1130.5,296.253 1135.71,292.352L1135.11,291.551C1133.91,292.453 1129.65,296.112 1124.69,301.053C1124.65,298.712 1122.67,296.723 1122.95,294.512L1122.2,294.419C1121.85,297.232 1124.51,299.537 1123.84,301.903C1120.79,304.972 1112.8,313.311 1109.54,317.648C1108.77,312.747 1105.61,312.269 1105.75,306.349L1105,306.331C1104.84,312.836 1108.47,313.233 1108.88,318.53C1103.07,326.502 1097.12,337.732 1094.39,345.161L1095.33,345.506C1096,343.67 1096.88,341.59 1097.9,339.393C1098.89,338.697 1101.24,337.86 1102.42,337.734C1106.59,337.277 1111.66,340.409 1115.04,339.537L1114.86,338.811C1111.81,339.599 1106.69,336.541 1102.34,336.988C1101.88,337.037 1099.93,337.501 1098.46,338.219C1100.37,334.221 1102.72,329.893 1105.21,325.838C1110.27,329.121 1116.92,327.225 1122.8,327.026C1124.61,326.96 1125.64,327.129 1128.63,329.029L1129.03,328.396C1125.88,326.391 1124.7,326.213 1122.78,326.276C1122.15,326.298 1121.49,326.343 1120.79,326.401C1121.62,324.448 1122.81,322.813 1124.25,321.68C1125.92,320.361 1127.98,319.692 1129.88,319.852L1129.94,319.105C1127.84,318.93 1125.6,319.656 1123.78,321.091C1122.19,322.346 1120.88,324.156 1119.99,326.326L1119.94,326.477C1119.5,326.517 1119.06,326.559 1118.61,326.603C1115.99,326.86 1113.28,327.123 1111.03,326.93C1108.87,326.743 1107.06,326.151 1105.6,325.199C1108.19,321.04 1110.92,317.216 1113.47,314.411C1114.43,313.352 1115.38,312.3 1116.35,311.251C1118.33,312.174 1120.5,312.654 1122.68,312.654C1126.21,312.654 1128.25,311.45 1130.98,310.97C1132.17,310.762 1134.39,310.596 1135.99,311.834L1136.45,311.241C1133.14,308.668 1128.42,311.032 1125.47,311.628Z" style="fill:rgb(163,204,98);fill-rule:nonzero;"/>
            </g>
        </g>
    </g>
</svg>
