<?xml version="1.0" encoding="UTF-8" standalone="no"?>
<!DOCTYPE svg PUBLIC "-//W3C//DTD SVG 1.1//EN" "http://www.w3.org/Graphics/SVG/1.1/DTD/svg11.dtd">
<svg width="100%" height="100%" viewBox="0 0 600 596" version="1.1" xmlns="http://www.w3.org/2000/svg" xmlns:xlink="http://www.w3.org/1999/xlink" xml:space="preserve" xmlns:serif="http://www.serif.com/" style="fill-rule:evenodd;clip-rule:evenodd;stroke-linejoin:round;stroke-miterlimit:2;">
    <g transform="matrix(4.16667,0,0,4.16667,-2100,-3004.17)">
        <g>
            <g transform="matrix(1,0,0,1,-508.115,-84.93)">
                <path d="M1098.88,879.918L1090.99,876.801L1084.11,894.21L1077.24,876.801L1069.34,879.918L1075.64,895.855L1075.64,921.512L1092.61,921.512L1092.61,895.795L1098.88,879.918Z" style="fill:rgb(149,191,67);fill-rule:nonzero;"/>
            </g>
            <g transform="matrix(1,0,0,1,-508.115,-84.93)">
                <path d="M1082.21,864.346C1082.21,863.097 1081.61,862 1080.69,861.291C1081.34,860.335 1081.58,859.104 1081.19,857.92C1080.8,856.732 1079.9,855.874 1078.8,855.484C1079.13,854.371 1078.97,853.13 1078.24,852.121C1077.5,851.112 1076.37,850.577 1075.21,850.542C1075.18,849.385 1074.64,848.254 1073.64,847.52C1072.63,846.787 1071.39,846.628 1070.27,846.953C1069.88,845.862 1069.02,844.953 1067.84,844.566C1066.65,844.181 1065.42,844.413 1064.46,845.066C1063.76,844.15 1062.66,843.551 1061.41,843.551C1060.16,843.551 1059.06,844.15 1058.36,845.066C1057.4,844.414 1056.17,844.183 1054.99,844.568C1053.8,844.953 1052.94,845.864 1052.55,846.954C1051.44,846.63 1050.2,846.789 1049.19,847.523C1048.18,848.256 1047.64,849.387 1047.61,850.545C1046.45,850.579 1045.32,851.114 1044.59,852.123C1043.85,853.133 1043.69,854.373 1044.02,855.486C1042.93,855.877 1042.02,856.734 1041.63,857.922C1041.25,859.107 1041.48,860.338 1042.13,861.294C1041.21,862.003 1040.62,863.101 1040.62,864.347C1040.61,865.596 1041.21,866.693 1042.13,867.402C1041.48,868.359 1041.25,869.588 1041.63,870.773C1042.02,871.961 1042.93,872.82 1044.02,873.211C1043.7,874.322 1043.85,875.562 1044.59,876.572C1045.32,877.582 1046.45,878.117 1047.61,878.15C1047.64,879.308 1048.18,880.439 1049.19,881.172C1050.2,881.905 1051.44,882.066 1052.55,881.74C1052.94,882.831 1053.8,883.74 1054.99,884.126C1056.17,884.512 1057.4,884.279 1058.36,883.628C1059.07,884.543 1060.17,885.143 1061.41,885.143C1062.66,885.143 1063.76,884.543 1064.47,883.627C1065.42,884.279 1066.65,884.51 1067.84,884.126C1069.03,883.74 1069.89,882.83 1070.28,881.74C1071.39,882.064 1072.63,881.904 1073.64,881.171C1074.65,880.437 1075.18,879.306 1075.22,878.149C1076.37,878.114 1077.5,877.579 1078.24,876.57C1078.97,875.56 1079.13,874.318 1078.81,873.208C1079.9,872.817 1080.81,871.959 1081.19,870.771C1081.58,869.586 1081.35,868.355 1080.69,867.4C1081.61,866.689 1082.21,865.593 1082.21,864.346Z" style="fill:rgb(90,127,19);fill-rule:nonzero;"/>
            </g>
            <g transform="matrix(1,0,0,1,-508.115,-84.93)">
                <path d="M1127.61,864.346C1127.61,863.097 1127.01,862 1126.09,861.291C1126.74,860.335 1126.97,859.104 1126.59,857.92C1126.2,856.732 1125.29,855.874 1124.2,855.484C1124.53,854.371 1124.37,853.13 1123.63,852.121C1122.9,851.112 1121.77,850.577 1120.61,850.542C1120.58,849.385 1120.04,848.254 1119.03,847.52C1118.02,846.787 1116.78,846.628 1115.67,846.953C1115.28,845.862 1114.42,844.953 1113.24,844.566C1112.05,844.181 1110.82,844.413 1109.86,845.066C1109.15,844.15 1108.06,843.551 1106.81,843.551C1105.56,843.551 1104.46,844.15 1103.75,845.066C1102.8,844.414 1101.57,844.183 1100.38,844.568C1099.2,844.953 1098.34,845.864 1097.95,846.954C1096.83,846.63 1095.59,846.789 1094.58,847.523C1093.58,848.256 1093.04,849.387 1093.01,850.545C1091.85,850.579 1090.72,851.114 1089.98,852.123C1089.25,853.133 1089.09,854.373 1089.42,855.486C1088.33,855.877 1087.42,856.734 1087.03,857.922C1086.64,859.107 1086.88,860.338 1087.53,861.294C1086.61,862.003 1086.01,863.101 1086.01,864.347C1086.01,865.596 1086.61,866.693 1087.53,867.402C1086.88,868.359 1086.65,869.588 1087.03,870.773C1087.42,871.961 1088.33,872.82 1089.42,873.211C1089.09,874.322 1089.25,875.562 1089.99,876.572C1090.72,877.582 1091.85,878.117 1093.01,878.15C1093.04,879.308 1093.58,880.439 1094.59,881.172C1095.6,881.905 1096.84,882.066 1097.95,881.74C1098.34,882.831 1099.2,883.74 1100.38,884.126C1101.57,884.512 1102.8,884.279 1103.76,883.628C1104.47,884.543 1105.56,885.143 1106.81,885.143C1108.06,885.143 1109.16,884.543 1109.86,883.627C1110.82,884.279 1112.05,884.51 1113.24,884.126C1114.42,883.74 1115.28,882.83 1115.67,881.74C1116.79,882.064 1118.03,881.904 1119.03,881.171C1120.04,880.437 1120.58,879.306 1120.61,878.149C1121.77,878.114 1122.9,877.579 1123.64,876.57C1124.37,875.56 1124.53,874.318 1124.2,873.208C1125.29,872.817 1126.2,871.959 1126.59,870.771C1126.97,869.586 1126.74,868.355 1126.09,867.4C1127.01,866.689 1127.61,865.593 1127.61,864.346Z" style="fill:rgb(90,127,19);fill-rule:nonzero;"/>
            </g>
            <g transform="matrix(1,0,0,1,-508.115,-84.93)">
                <path d="M1110.2,855.019C1110.2,853.454 1109.45,852.076 1108.3,851.187C1109.12,849.988 1109.41,848.445 1108.92,846.957C1108.44,845.469 1107.3,844.392 1105.93,843.902C1106.34,842.506 1106.14,840.949 1105.22,839.683C1104.3,838.418 1102.88,837.747 1101.43,837.703C1101.38,836.251 1100.71,834.832 1099.45,833.912C1098.18,832.992 1096.62,832.793 1095.23,833.199C1094.74,831.832 1093.66,830.689 1092.17,830.207C1090.68,829.722 1089.14,830.015 1087.94,830.834C1087.05,829.683 1085.67,828.93 1084.11,828.93C1082.54,828.93 1081.17,829.683 1080.28,830.834C1079.08,830.015 1077.54,829.724 1076.05,830.208C1074.56,830.691 1073.48,831.834 1072.99,833.202C1071.6,832.795 1070.04,832.995 1068.77,833.916C1067.51,834.835 1066.84,836.254 1066.79,837.705C1065.34,837.75 1063.92,838.42 1063,839.687C1062.08,840.953 1061.88,842.51 1062.29,843.904C1060.92,844.394 1059.78,845.472 1059.3,846.96C1058.81,848.449 1059.1,849.991 1059.92,851.191C1058.77,852.081 1058.02,853.457 1058.02,855.021C1058.02,856.588 1058.77,857.965 1059.92,858.853C1059.1,860.055 1058.81,861.597 1059.3,863.084C1059.78,864.573 1060.92,865.65 1062.29,866.14C1061.88,867.535 1062.08,869.092 1063,870.357C1063.92,871.624 1065.34,872.296 1066.79,872.338C1066.84,873.791 1067.51,875.209 1068.78,876.129C1070.04,877.049 1071.6,877.25 1072.99,876.842C1073.48,878.209 1074.56,879.351 1076.05,879.834C1077.54,880.318 1079.08,880.027 1080.28,879.209C1081.17,880.358 1082.55,881.111 1084.11,881.111C1085.68,881.111 1087.05,880.357 1087.94,879.209C1089.14,880.027 1090.69,880.317 1092.17,879.834C1093.66,879.349 1094.74,878.208 1095.23,876.84C1096.63,877.248 1098.18,877.047 1099.45,876.128C1100.71,875.207 1101.38,873.789 1101.43,872.336C1102.88,872.293 1104.3,871.621 1105.22,870.355C1106.14,869.09 1106.34,867.533 1105.93,866.137C1107.3,865.647 1108.44,864.57 1108.92,863.082C1109.41,861.594 1109.12,860.051 1108.3,858.849C1109.45,857.962 1110.2,856.584 1110.2,855.019Z" style="fill:rgb(119,171,32);fill-rule:nonzero;"/>
            </g>
        </g>
    </g>
</svg>
