<?xml version="1.0" encoding="UTF-8" standalone="no"?>
<!DOCTYPE svg PUBLIC "-//W3C//DTD SVG 1.1//EN" "http://www.w3.org/Graphics/SVG/1.1/DTD/svg11.dtd">
<svg width="100%" height="100%" viewBox="0 0 596 596" version="1.1" xmlns="http://www.w3.org/2000/svg" xmlns:xlink="http://www.w3.org/1999/xlink" xml:space="preserve" xmlns:serif="http://www.serif.com/" style="fill-rule:evenodd;clip-rule:evenodd;stroke-linejoin:round;stroke-miterlimit:2;">
    <g transform="matrix(4.16667,0,0,4.16667,-3004.17,-2104.17)">
        <g>
            <g transform="matrix(1,0,0,1,-664.121,73.248)">
                <path d="M1453.47,465.292L1481.75,500.637C1471.98,508.444 1457.74,506.861 1449.94,497.099C1442.13,487.34 1443.71,473.099 1453.47,465.292Z" style="fill:rgb(172,202,29);fill-rule:nonzero;"/>
            </g>
            <g transform="matrix(1,0,0,1,-664.121,73.248)">
                <path d="M1477.09,498.179C1477.09,498.179 1466.42,492.276 1451.18,492.479C1451.18,492.479 1460.8,484.946 1476.75,492.372L1477.09,498.179Z" style="fill:rgb(205,221,88);fill-rule:nonzero;"/>
            </g>
            <g transform="matrix(1,0,0,1,-664.121,73.248)">
                <path d="M1474.03,490.619C1474.03,490.619 1463.93,484.853 1449.88,484.353C1449.88,484.353 1458.41,478.033 1473.46,485.402L1474.03,490.619Z" style="fill:rgb(205,221,88);fill-rule:nonzero;"/>
            </g>
            <g transform="matrix(1,0,0,1,-664.121,73.248)">
                <path d="M1485.28,468.829C1493.09,478.59 1491.51,492.83 1481.75,500.637L1453.47,465.292C1463.23,457.485 1477.48,459.068 1485.28,468.829Z" style="fill:rgb(164,186,4);fill-rule:nonzero;"/>
            </g>
            <g transform="matrix(1,0,0,1,-664.121,73.248)">
                <path d="M1456.28,468.805L1456.28,468.804L1456.28,468.805C1456.31,468.882 1460.97,483.552 1473.54,498.24C1473.54,498.24 1477.49,502.881 1481.75,500.637C1484.87,496.98 1481.21,492.106 1481.21,492.106C1469.64,476.612 1456.35,468.846 1456.28,468.805Z" style="fill:rgb(205,221,88);fill-rule:nonzero;"/>
            </g>
            <g transform="matrix(1,0,0,1,-664.121,73.248)">
                <path d="M1482.53,501.625C1482.53,501.625 1462.34,515.199 1447.41,497.433C1447.41,497.433 1469.69,485.566 1482.53,501.625Z" style="fill:rgb(164,186,4);fill-rule:nonzero;"/>
            </g>
            <g transform="matrix(1,0,0,1,-664.121,73.248)">
                <path d="M1480.37,495.559C1480.37,495.559 1476.95,483.852 1480.5,469.029C1480.5,469.029 1471.04,476.757 1474.78,493.953L1480.37,495.559Z" style="fill:rgb(205,221,88);fill-rule:nonzero;"/>
            </g>
            <g transform="matrix(1,0,0,1,-664.121,73.248)">
                <path d="M1473.67,490.913C1473.67,490.913 1470.26,479.787 1472.86,465.972C1472.86,465.972 1464.82,472.909 1468.7,489.209L1473.67,490.913Z" style="fill:rgb(205,221,88);fill-rule:nonzero;"/>
            </g>
            <g transform="matrix(1,0,0,1,-664.121,73.248)">
                <path d="M1482.53,501.625C1482.53,501.625 1500.21,484.909 1486.16,466.44C1486.16,466.44 1469.69,485.566 1482.53,501.625Z" style="fill:rgb(149,160,0);fill-rule:nonzero;"/>
            </g>
            <g transform="matrix(1,0,0,1,-664.121,73.248)">
                <path d="M1440.73,519.722C1440.73,531.17 1431.44,540.363 1420.09,540.363L1420.09,499.082C1431.44,499.082 1440.73,508.283 1440.73,519.722Z" style="fill:rgb(164,186,4);fill-rule:nonzero;"/>
            </g>
            <g transform="matrix(1,0,0,1,-664.121,73.248)">
                <path d="M1420.09,499.082L1420.09,540.363C1408.73,540.363 1399.45,531.163 1399.45,519.722C1399.45,508.283 1408.73,499.082 1420.09,499.082Z" style="fill:rgb(172,202,29);fill-rule:nonzero;"/>
            </g>
            <g transform="matrix(1,0,0,1,-664.121,73.248)">
                <path d="M1425.26,517.495L1414.92,517.495C1413.78,508.986 1415.77,502.847 1417.6,499.233C1418.42,499.133 1419.25,499.082 1420.09,499.082C1420.93,499.082 1421.76,499.133 1422.57,499.233C1424.4,502.847 1426.39,508.986 1425.26,517.495Z" style="fill:rgb(205,221,88);fill-rule:nonzero;"/>
            </g>
            <g transform="matrix(1,0,0,1,-664.121,73.248)">
                <path d="M1422.57,540.212C1421.76,540.312 1420.93,540.363 1420.09,540.363C1419.25,540.363 1418.42,540.312 1417.6,540.212C1415.77,536.601 1413.78,530.462 1414.92,521.954L1425.26,521.954C1426.39,530.462 1424.4,536.601 1422.57,540.212Z" style="fill:rgb(205,221,88);fill-rule:nonzero;"/>
            </g>
            <g transform="matrix(1,0,0,1,-664.121,73.248)">
                <path d="M1432.13,519.723C1432.13,526.374 1426.74,531.765 1420.09,531.765C1413.44,531.765 1408.04,526.374 1408.04,519.723C1408.04,513.072 1413.44,507.68 1420.09,507.68C1426.74,507.68 1432.13,513.072 1432.13,519.723Z" style="fill:rgb(205,221,88);fill-rule:nonzero;"/>
            </g>
            <g transform="matrix(1,0,0,1,-664.121,73.248)">
                <path d="M1427.62,519.723C1427.62,523.884 1424.25,527.257 1420.09,527.257C1415.93,527.257 1412.55,523.884 1412.55,519.723C1412.55,515.563 1415.93,512.191 1420.09,512.191C1424.25,512.191 1427.62,515.563 1427.62,519.723Z" style="fill:rgb(242,252,107);fill-rule:nonzero;"/>
            </g>
            <g transform="matrix(1,0,0,1,-664.121,73.248)">
                <path d="M1421.21,502.808C1425.74,502.396 1431.77,503.635 1431.94,509.804C1431.94,509.804 1427.8,505.914 1422.39,506.467L1421.21,502.808Z" style="fill:rgb(205,221,88);fill-rule:nonzero;"/>
            </g>
            <g transform="matrix(1,0,0,1,-664.121,73.248)">
                <path d="M1418.91,502.808C1414.38,502.396 1408.35,503.635 1408.18,509.804C1408.18,509.804 1412.33,505.914 1417.73,506.467L1418.91,502.808Z" style="fill:rgb(205,221,88);fill-rule:nonzero;"/>
            </g>
            <g transform="matrix(1,0,0,1,-664.121,73.248)">
                <path d="M1418.96,536.639C1414.43,537.051 1408.4,535.812 1408.23,529.644C1408.23,529.644 1412.38,533.533 1417.78,532.982L1418.96,536.639Z" style="fill:rgb(205,221,88);fill-rule:nonzero;"/>
            </g>
            <g transform="matrix(1,0,0,1,-664.121,73.248)">
                <path d="M1421.27,536.639C1425.79,537.051 1431.82,535.812 1431.99,529.644C1431.99,529.644 1427.85,533.533 1422.44,532.982L1421.27,536.639Z" style="fill:rgb(205,221,88);fill-rule:nonzero;"/>
            </g>
            <g transform="matrix(1,0,0,1,-664.121,73.248)">
                <path d="M1459.16,488.194C1459.16,499.64 1449.86,508.835 1438.51,508.835L1438.51,467.553C1449.87,467.553 1459.16,476.754 1459.16,488.194Z" style="fill:rgb(164,186,4);fill-rule:nonzero;"/>
            </g>
            <g transform="matrix(1,0,0,1,-664.121,73.248)">
                <path d="M1438.51,467.553L1438.51,508.835C1427.16,508.835 1417.87,499.635 1417.87,488.194C1417.87,476.754 1427.16,467.553 1438.51,467.553Z" style="fill:rgb(172,202,29);fill-rule:nonzero;"/>
            </g>
            <g transform="matrix(1,0,0,1,-664.121,73.248)">
                <path d="M1443.68,485.967L1433.35,485.967C1432.21,477.457 1434.2,471.319 1436.03,467.705C1436.84,467.604 1437.67,467.553 1438.51,467.553C1439.36,467.553 1440.18,467.604 1441,467.705C1442.83,471.319 1444.82,477.457 1443.68,485.967Z" style="fill:rgb(205,221,88);fill-rule:nonzero;"/>
            </g>
            <g transform="matrix(1,0,0,1,-664.121,73.248)">
                <path d="M1441,508.685C1440.18,508.785 1439.36,508.835 1438.51,508.835C1437.67,508.835 1436.84,508.785 1436.03,508.685C1434.2,505.072 1432.21,498.933 1433.35,490.426L1443.68,490.426C1444.82,498.933 1442.83,505.072 1441,508.685Z" style="fill:rgb(205,221,88);fill-rule:nonzero;"/>
            </g>
            <g transform="matrix(1,0,0,1,-664.121,73.248)">
                <path d="M1450.56,488.196C1450.56,494.846 1445.17,500.238 1438.51,500.238C1431.86,500.238 1426.47,494.846 1426.47,488.196C1426.47,481.544 1431.86,476.152 1438.51,476.152C1445.17,476.152 1450.56,481.544 1450.56,488.196Z" style="fill:rgb(205,221,88);fill-rule:nonzero;"/>
            </g>
            <g transform="matrix(1,0,0,1,-664.121,73.248)">
                <path d="M1446.05,488.196C1446.05,492.355 1442.67,495.728 1438.51,495.728C1434.35,495.728 1430.98,492.355 1430.98,488.196C1430.98,484.034 1434.35,480.663 1438.51,480.663C1442.67,480.663 1446.05,484.034 1446.05,488.196Z" style="fill:rgb(242,252,107);fill-rule:nonzero;"/>
            </g>
            <g transform="matrix(1,0,0,1,-664.121,73.248)">
                <path d="M1439.64,471.28C1444.17,470.869 1450.2,472.108 1450.37,478.276C1450.37,478.276 1446.22,474.387 1440.82,474.937L1439.64,471.28Z" style="fill:rgb(205,221,88);fill-rule:nonzero;"/>
            </g>
            <g transform="matrix(1,0,0,1,-664.121,73.248)">
                <path d="M1437.34,471.28C1432.81,470.869 1426.78,472.108 1426.61,478.276C1426.61,478.276 1430.75,474.387 1436.16,474.937L1437.34,471.28Z" style="fill:rgb(205,221,88);fill-rule:nonzero;"/>
            </g>
            <g transform="matrix(1,0,0,1,-664.121,73.248)">
                <path d="M1437.39,505.111C1432.86,505.523 1426.83,504.283 1426.66,498.117C1426.66,498.117 1430.8,502.006 1436.21,501.455L1437.39,505.111Z" style="fill:rgb(205,221,88);fill-rule:nonzero;"/>
            </g>
            <g transform="matrix(1,0,0,1,-664.121,73.248)">
                <path d="M1439.69,505.111C1444.22,505.523 1450.25,504.283 1450.42,498.117C1450.42,498.117 1446.28,502.006 1440.87,501.455L1439.69,505.111Z" style="fill:rgb(205,221,88);fill-rule:nonzero;"/>
            </g>
            <g transform="matrix(1,0,0,1,-664.121,73.248)">
                <path d="M1454.36,489.974L1454.36,535.234C1441.86,535.234 1431.73,525.103 1431.73,512.603C1431.73,500.105 1441.86,489.974 1454.36,489.974Z" style="fill:rgb(172,202,29);fill-rule:nonzero;"/>
            </g>
            <g transform="matrix(1,0,0,1,-664.121,73.248)">
                <path d="M1452.26,530.408C1452.26,530.408 1447.61,519.136 1435.58,509.773C1435.58,509.773 1447.8,509.898 1455.62,525.663L1452.26,530.408Z" style="fill:rgb(205,221,88);fill-rule:nonzero;"/>
            </g>
            <g transform="matrix(1,0,0,1,-664.121,73.248)">
                <path d="M1454.59,522.595C1454.59,522.595 1450.3,511.777 1439.64,502.613C1439.64,502.613 1450.25,503.008 1457.4,518.162L1454.59,522.595Z" style="fill:rgb(205,221,88);fill-rule:nonzero;"/>
            </g>
            <g transform="matrix(1,0,0,1,-664.121,73.248)">
                <path d="M1476.99,512.603C1476.99,525.103 1466.85,535.234 1454.36,535.234L1454.36,489.974C1466.85,489.974 1476.99,500.105 1476.99,512.603Z" style="fill:rgb(147,158,0);fill-rule:nonzero;"/>
            </g>
            <g transform="matrix(1,0,0,1,-664.121,73.248)">
                <path d="M1454.36,494.472L1454.36,494.471L1454.36,494.472C1454.33,494.548 1448.8,508.913 1449.44,528.238C1449.44,528.238 1449.63,534.33 1454.36,535.234C1459.08,534.33 1459.27,528.238 1459.27,528.238C1459.91,508.913 1454.38,494.548 1454.36,494.472Z" style="fill:rgb(205,221,88);fill-rule:nonzero;"/>
            </g>
            <g transform="matrix(1,0,0,1,-664.121,73.248)">
                <path d="M1454.36,536.498C1454.36,536.498 1430.11,534.486 1429.55,511.287C1429.55,511.287 1454.36,515.935 1454.36,536.498Z" style="fill:rgb(144,155,4);fill-rule:nonzero;"/>
            </g>
            <g transform="matrix(1,0,0,1,-664.121,73.248)">
                <path d="M1456.45,530.408C1456.45,530.408 1461.1,519.136 1473.13,509.773C1473.13,509.773 1460.91,509.898 1453.09,525.663L1456.45,530.408Z" style="fill:rgb(205,221,88);fill-rule:nonzero;"/>
            </g>
            <g transform="matrix(1,0,0,1,-664.121,73.248)">
                <path d="M1454.12,522.595C1454.12,522.595 1458.41,511.777 1469.07,502.613C1469.07,502.613 1458.46,503.008 1451.31,518.162L1454.12,522.595Z" style="fill:rgb(205,221,88);fill-rule:nonzero;"/>
            </g>
            <g transform="matrix(1,0,0,1,-664.121,73.248)">
                <path d="M1454.36,536.498C1454.36,536.498 1478.6,534.486 1479.16,511.287C1479.16,511.287 1454.36,515.935 1454.36,536.498Z" style="fill:rgb(149,160,0);fill-rule:nonzero;"/>
            </g>
            <g transform="matrix(1,0,0,1,-664.121,73.248)">
                <path d="M1503.8,499.622L1476.52,535.732C1466.54,528.197 1464.57,514.006 1472.11,504.033C1479.64,494.061 1493.83,492.087 1503.8,499.622Z" style="fill:rgb(172,202,29);fill-rule:nonzero;"/>
            </g>
            <g transform="matrix(1,0,0,1,-664.121,73.248)">
                <path d="M1477.75,530.618C1477.75,530.618 1480.84,518.822 1476.89,504.101C1476.89,504.101 1486.56,511.566 1483.3,528.857L1477.75,530.618Z" style="fill:rgb(205,221,88);fill-rule:nonzero;"/>
            </g>
            <g transform="matrix(1,0,0,1,-664.121,73.248)">
                <path d="M1484.32,525.789C1484.32,525.789 1487.42,514.572 1484.44,500.836C1484.44,500.836 1492.67,507.549 1489.24,523.947L1484.32,525.789Z" style="fill:rgb(205,221,88);fill-rule:nonzero;"/>
            </g>
            <g transform="matrix(1,0,0,1,-664.121,73.248)">
                <path d="M1508.21,531.32C1500.68,541.292 1486.49,543.267 1476.52,535.732L1503.8,499.622C1513.78,507.156 1515.75,521.349 1508.21,531.32Z" style="fill:rgb(164,186,4);fill-rule:nonzero;"/>
            </g>
            <g transform="matrix(1,0,0,1,-664.121,73.248)">
                <path d="M1501.09,503.212L1501.09,503.21L1501.09,503.211C1501.02,503.254 1487.95,511.383 1476.82,527.189C1476.82,527.189 1473.29,532.163 1476.52,535.732C1480.83,537.857 1484.65,533.11 1484.65,533.11C1496.82,518.082 1501.07,503.289 1501.09,503.212Z" style="fill:rgb(205,221,88);fill-rule:nonzero;"/>
            </g>
            <g transform="matrix(1,0,0,1,-664.121,73.248)">
                <path d="M1475.75,536.74C1475.75,536.74 1457.62,520.517 1471.16,501.67C1471.16,501.67 1488.15,520.334 1475.75,536.74Z" style="fill:rgb(164,186,4);fill-rule:nonzero;"/>
            </g>
            <g transform="matrix(1,0,0,1,-664.121,73.248)">
                <path d="M1481.1,533.146C1481.1,533.146 1491.6,526.952 1506.84,526.736C1506.84,526.736 1497.02,519.472 1481.28,527.334L1481.1,533.146Z" style="fill:rgb(205,221,88);fill-rule:nonzero;"/>
            </g>
            <g transform="matrix(1,0,0,1,-664.121,73.248)">
                <path d="M1483.95,525.506C1483.95,525.506 1493.89,519.464 1507.92,518.577C1507.92,518.577 1499.22,512.494 1484.38,520.274L1483.95,525.506Z" style="fill:rgb(205,221,88);fill-rule:nonzero;"/>
            </g>
            <g transform="matrix(1,0,0,1,-664.121,73.248)">
                <path d="M1475.75,536.74C1475.75,536.74 1496.31,549.754 1510.75,531.584C1510.75,531.584 1488.15,520.334 1475.75,536.74Z" style="fill:rgb(149,160,0);fill-rule:nonzero;"/>
            </g>
            <g transform="matrix(1,0,0,1,-664.121,73.248)">
                <path d="M1485.7,528.381C1485.7,538.625 1477.38,546.851 1467.23,546.851L1467.23,509.91C1477.39,509.91 1485.7,518.144 1485.7,528.381Z" style="fill:rgb(164,186,4);fill-rule:nonzero;"/>
            </g>
            <g transform="matrix(1,0,0,1,-664.121,73.248)">
                <path d="M1467.23,509.91L1467.23,546.851C1457.07,546.851 1448.76,538.619 1448.76,528.381C1448.76,518.144 1457.07,509.91 1467.23,509.91Z" style="fill:rgb(172,202,29);fill-rule:nonzero;"/>
            </g>
            <g transform="matrix(1,0,0,1,-664.121,73.248)">
                <path d="M1471.85,526.388L1462.6,526.388C1461.59,518.774 1463.36,513.279 1465.01,510.046C1465.73,509.956 1466.48,509.91 1467.23,509.91C1467.98,509.91 1468.72,509.956 1469.45,510.046C1471.09,513.279 1472.87,518.774 1471.85,526.388Z" style="fill:rgb(205,221,88);fill-rule:nonzero;"/>
            </g>
            <g transform="matrix(1,0,0,1,-664.121,73.248)">
                <path d="M1469.45,546.717C1468.72,546.806 1467.98,546.851 1467.23,546.851C1466.48,546.851 1465.73,546.806 1465.01,546.717L1465,546.717C1463.36,543.484 1461.59,537.992 1462.6,530.378L1471.85,530.378C1472.87,537.992 1471.09,543.484 1469.45,546.717Z" style="fill:rgb(205,221,88);fill-rule:nonzero;"/>
            </g>
            <g transform="matrix(1,0,0,1,-664.121,73.248)">
                <path d="M1478,528.383C1478,534.334 1473.18,539.158 1467.23,539.158C1461.28,539.158 1456.45,534.334 1456.45,528.383C1456.45,522.43 1461.28,517.605 1467.23,517.605C1473.18,517.605 1478,522.43 1478,528.383Z" style="fill:rgb(205,221,88);fill-rule:nonzero;"/>
            </g>
            <g transform="matrix(1,0,0,1,-664.121,73.248)">
                <path d="M1473.97,528.383C1473.97,532.105 1470.95,535.123 1467.23,535.123C1463.51,535.123 1460.49,532.105 1460.49,528.383C1460.49,524.66 1463.51,521.642 1467.23,521.642C1470.95,521.642 1473.97,524.66 1473.97,528.383Z" style="fill:rgb(242,252,107);fill-rule:nonzero;"/>
            </g>
            <g transform="matrix(1,0,0,1,-664.121,73.248)">
                <path d="M1468.24,513.246C1472.29,512.878 1477.69,513.986 1477.84,519.506C1477.84,519.506 1474.13,516.025 1469.29,516.517L1468.24,513.246Z" style="fill:rgb(205,221,88);fill-rule:nonzero;"/>
            </g>
            <g transform="matrix(1,0,0,1,-664.121,73.248)">
                <path d="M1466.17,513.246C1462.12,512.878 1456.73,513.986 1456.57,519.506C1456.57,519.506 1460.28,516.025 1465.12,516.517L1466.17,513.246Z" style="fill:rgb(205,221,88);fill-rule:nonzero;"/>
            </g>
            <g transform="matrix(1,0,0,1,-664.121,73.248)">
                <path d="M1466.22,543.519C1462.17,543.888 1456.77,542.779 1456.62,537.26C1456.62,537.26 1460.33,540.74 1465.17,540.247L1466.22,543.519Z" style="fill:rgb(205,221,88);fill-rule:nonzero;"/>
            </g>
            <g transform="matrix(1,0,0,1,-664.121,73.248)">
                <path d="M1468.28,543.519C1472.33,543.888 1477.73,542.779 1477.88,537.26C1477.88,537.26 1474.17,540.74 1469.34,540.247L1468.28,543.519Z" style="fill:rgb(205,221,88);fill-rule:nonzero;"/>
            </g>
        </g>
    </g>
</svg>
