<?xml version="1.0" encoding="UTF-8" standalone="no"?>
<!DOCTYPE svg PUBLIC "-//W3C//DTD SVG 1.1//EN" "http://www.w3.org/Graphics/SVG/1.1/DTD/svg11.dtd">
<svg width="100%" height="100%" viewBox="0 0 605 596" version="1.1" xmlns="http://www.w3.org/2000/svg" xmlns:xlink="http://www.w3.org/1999/xlink" xml:space="preserve" xmlns:serif="http://www.serif.com/" style="fill-rule:evenodd;clip-rule:evenodd;stroke-linejoin:round;stroke-miterlimit:2;">
    <g transform="matrix(4.16667,0,0,4.16667,-1200,-1204.17)">
        <g>
            <g transform="matrix(1,0,0,1,-150.921,34.2319)">
                <path d="M545.442,320.51C545.442,340.4 529.294,356.523 509.374,356.523C489.454,356.523 473.306,340.4 473.306,320.51C473.306,300.62 497.59,284.496 509.374,284.496C521.064,284.496 545.442,300.62 545.442,320.51Z" style="fill:rgb(216,170,249);fill-rule:nonzero;"/>
            </g>
            <g transform="matrix(1,0,0,1,-150.921,34.2319)">
                <path d="M518.588,300.576C503.124,287.911 490.814,287.028 490.814,287.028C477.073,298.308 472.549,313.959 477.137,327.991C483.557,347.629 517.753,304.988 518.588,300.576Z" style="fill:rgb(184,161,229);fill-rule:nonzero;"/>
            </g>
            <g transform="matrix(1,0,0,1,-150.921,34.2319)">
                <path d="M525.436,352.583C525.589,344.873 512.093,312.966 505.3,306.263C498.248,299.303 490.717,293.731 481.297,291.572C473.725,298.898 469.011,309.151 469.011,320.51C469.011,342.767 525.401,354.355 525.436,352.583Z" style="fill:rgb(166,135,216);fill-rule:nonzero;"/>
            </g>
            <g transform="matrix(1,0,0,1,-150.921,34.2319)">
                <path d="M487.57,327.524C486.675,322.564 524.168,278.944 532.534,285.596C540.566,291.983 546.042,301.355 548.173,311.345C554.862,342.699 528.646,369.391 499.924,361.659C500.468,360.321 487.648,327.954 487.57,327.524Z" style="fill:rgb(166,135,216);fill-rule:nonzero;"/>
            </g>
            <g transform="matrix(1,0,0,1,-150.921,34.2319)">
                <path d="M464.597,305.505C450.446,347.615 496.947,383.327 533.935,360.798C518.969,332.468 496.272,309.19 464.597,305.505Z" style="fill:rgb(144,117,211);fill-rule:nonzero;"/>
            </g>
            <g transform="matrix(1,0,0,1,-150.921,34.2319)">
                <path d="M558.13,310.512C559.036,315.403 559.191,320.517 558.453,325.713C553.225,362.55 508.141,380.447 480.155,357.442C498.913,331.551 526.179,309.708 558.13,310.512Z" style="fill:rgb(132,79,183);fill-rule:nonzero;"/>
            </g>
            <g transform="matrix(1,0,0,1,-150.921,34.2319)">
                <path d="M540.602,308.518C540.532,308.518 540.455,308.42 540.376,308.21C538.051,302.074 521.956,291.205 526.461,288.825C527.464,288.296 528.515,288.048 529.578,288.048C530.828,288.048 532.096,288.391 533.321,289.024C541.345,293.169 541.479,308.52 540.602,308.518Z" style="fill:rgb(190,167,227);fill-rule:nonzero;"/>
            </g>
            <g transform="matrix(1,0,0,1,-150.921,34.2319)">
                <path d="M514.716,290.391C514.226,290.391 513.612,290.16 512.887,289.586C512.034,288.911 511.323,287.811 510.745,286.924C511.717,286.519 512.544,286.35 513.237,286.35C514.932,286.35 515.814,287.361 516.015,288.371C516.216,289.381 515.739,290.391 514.716,290.391Z" style="fill:rgb(236,214,252);fill-rule:nonzero;"/>
            </g>
            <g transform="matrix(1,0,0,1,-150.921,34.2319)">
                <path d="M534.653,349.43C534.185,349.43 533.725,349.368 533.277,349.238C544.563,331.337 540.261,332.478 545.268,317.909C546.111,315.454 548.183,314.143 550.796,313.935C550.935,313.924 551.071,313.918 551.202,313.918C556.477,313.918 555.131,322.796 551.071,331.674C547.011,340.552 540.236,349.431 534.653,349.43Z" style="fill:rgb(166,128,203);fill-rule:nonzero;"/>
            </g>
        </g>
    </g>
</svg>
