<?xml version="1.0" encoding="UTF-8" standalone="no"?>
<!DOCTYPE svg PUBLIC "-//W3C//DTD SVG 1.1//EN" "http://www.w3.org/Graphics/SVG/1.1/DTD/svg11.dtd">
<svg width="100%" height="100%" viewBox="0 0 592 596" version="1.1" xmlns="http://www.w3.org/2000/svg" xmlns:xlink="http://www.w3.org/1999/xlink" xml:space="preserve" xmlns:serif="http://www.serif.com/" style="fill-rule:evenodd;clip-rule:evenodd;stroke-linejoin:round;stroke-miterlimit:2;">
    <g transform="matrix(4.16667,0,0,4.16667,-308.333,-3004.17)">
        <g>
            <g transform="matrix(1,0,0,1,23.6165,-81.9025)">
                <path d="M129.42,876.058C129.42,897.222 122.944,924.09 103.516,924.09C88.377,924.09 77.611,897.222 77.611,876.058C77.611,854.896 89.209,848.535 103.516,848.535C117.822,848.535 129.42,854.896 129.42,876.058Z" style="fill:rgb(244,176,6);fill-rule:nonzero;"/>
            </g>
            <g transform="matrix(1,0,0,1,23.6165,-81.9025)">
                <path d="M111.348,876.058C111.348,897.222 117.823,924.09 137.252,924.09C153.044,924.09 163.156,897.222 163.156,876.058C163.156,854.896 151.558,848.535 137.252,848.535C122.945,848.535 111.348,854.896 111.348,876.058Z" style="fill:rgb(244,176,6);fill-rule:nonzero;"/>
            </g>
            <g transform="matrix(1,0,0,1,23.6165,-81.9025)">
                <path d="M146.288,878.033C146.288,900.714 139.812,929.512 120.383,929.512C98.797,929.512 94.478,900.714 94.478,878.033C94.478,855.353 106.077,848.535 120.383,848.535C134.69,848.535 146.288,855.353 146.288,878.033Z" style="fill:rgb(255,212,0);fill-rule:nonzero;"/>
            </g>
            <g transform="matrix(1,0,0,1,23.6165,-81.9025)">
                <path d="M116.569,871.123C112.438,879.349 116.964,890.957 112.424,890.957C103.662,890.957 101.91,879.267 101.91,870.062C101.91,860.857 106.617,858.089 112.424,858.089C118.231,858.089 120.134,864.023 116.569,871.123Z" style="fill:rgb(255,243,95);fill-rule:nonzero;"/>
            </g>
            <g transform="matrix(1,0,0,1,23.6165,-81.9025)">
                <path d="M122.657,840.459C122.883,834.152 125.306,829.244 131.682,827.178L128.084,818.293C119.672,822.754 115.208,829.492 116.621,840.742C109.117,842.517 103.516,844.982 103.516,849.234C103.516,854.172 111.068,850.945 120.383,850.945C129.7,850.945 137.252,854.172 137.252,849.234C137.252,844.705 130.897,841.637 122.657,840.459Z" style="fill:rgb(159,224,90);fill-rule:nonzero;"/>
            </g>
        </g>
    </g>
</svg>
