<?xml version="1.0" encoding="UTF-8" standalone="no"?>
<!DOCTYPE svg PUBLIC "-//W3C//DTD SVG 1.1//EN" "http://www.w3.org/Graphics/SVG/1.1/DTD/svg11.dtd">
<svg width="100%" height="100%" viewBox="0 0 600 600" version="1.1" xmlns="http://www.w3.org/2000/svg" xmlns:xlink="http://www.w3.org/1999/xlink" xml:space="preserve" xmlns:serif="http://www.serif.com/" style="fill-rule:evenodd;clip-rule:evenodd;stroke-linejoin:round;stroke-miterlimit:2;">
    <g transform="matrix(4.16667,0,0,4.16667,-2100,-300)">
        <g>
            <g transform="matrix(1,0,0,1,-142.471,14.6848)">
                <path d="M755.195,111.755C754.907,109.071 752.553,107.134 749.938,107.429L745.557,107.924L747.288,106.021L762.229,104.331C764.845,104.03 766.73,101.615 766.442,98.932C766.154,96.247 763.802,94.307 761.187,94.604L757.267,95.049L760.452,91.544C762.249,89.571 762.145,86.475 760.221,84.63C758.299,82.788 755.285,82.894 753.486,84.868L749.73,89.004L749.63,84.845C749.563,82.144 747.377,80.01 744.747,80.077C742.119,80.144 740.039,82.39 740.105,85.089L740.447,99.101L740.341,99.325L738.471,101.383L738.382,97.669C738.315,94.967 736.131,92.832 733.502,92.901C730.87,92.969 728.789,95.212 728.858,97.913C728.858,97.913 729.025,113.304 729.043,114.327C729.097,117.535 731.89,119.315 733.927,119.086L750.982,117.154C753.599,116.857 755.484,114.439 755.195,111.755Z" style="fill:rgb(106,193,22);fill-rule:nonzero;"/>
            </g>
            <g transform="matrix(1,0,0,1,-142.471,14.6848)">
                <path d="M728.047,150.261C710.775,167.519 677.145,183.008 671.81,177.379C666.179,171.437 682.469,137.654 699.74,120.391C717.014,103.13 726.544,106.626 734.359,114.875C742.178,123.123 745.32,133 728.047,150.261Z" style="fill:rgb(255,148,8);fill-rule:nonzero;"/>
            </g>
            <g transform="matrix(1,0,0,1,-142.471,14.6848)">
                <path d="M735.349,136.021C734.53,136.858 731.265,134.841 728.052,131.521C724.838,128.201 722.896,124.832 723.713,123.999C724.531,123.163 727.799,125.179 731.012,128.5C734.226,131.82 736.166,135.187 735.349,136.021Z" style="fill:rgb(77,77,77);fill-rule:nonzero;"/>
            </g>
            <g transform="matrix(1,0,0,1,-142.471,14.6848)">
                <path d="M713.389,131.595C712.569,132.429 709.968,131.099 707.573,128.625C705.18,126.151 703.9,123.469 704.719,122.635C705.536,121.801 708.14,123.132 710.534,125.605C712.929,128.079 714.206,130.761 713.389,131.595Z" style="fill:rgb(77,77,77);fill-rule:nonzero;"/>
            </g>
            <g transform="matrix(1,0,0,1,-142.471,14.6848)">
                <path d="M689.289,168.648C688.47,169.483 685.868,168.152 683.474,165.68C681.079,163.205 679.801,160.523 680.618,159.69C681.437,158.856 684.04,160.184 686.436,162.657C688.829,165.132 690.106,167.814 689.289,168.648Z" style="fill:rgb(77,77,77);fill-rule:nonzero;"/>
            </g>
            <g transform="matrix(1,0,0,1,-142.471,14.6848)">
                <path d="M715.998,153.196C715.178,154.033 712.577,152.701 710.183,150.229C707.787,147.754 706.509,145.074 707.327,144.24C708.145,143.404 710.748,144.735 713.144,147.207C715.536,149.683 716.814,152.364 715.998,153.196Z" style="fill:rgb(77,77,77);fill-rule:nonzero;"/>
            </g>
            <g transform="matrix(1,0,0,1,-142.471,14.6848)">
                <path d="M700.613,154.535C699.795,155.369 696.614,153.441 693.507,150.229C690.397,147.017 688.54,143.738 689.357,142.903C690.176,142.07 693.358,143.993 696.466,147.209C699.574,150.42 701.432,153.701 700.613,154.535Z" style="fill:rgb(77,77,77);fill-rule:nonzero;"/>
            </g>
        </g>
    </g>
</svg>
