<?xml version="1.0" encoding="UTF-8" standalone="no"?>
<!DOCTYPE svg PUBLIC "-//W3C//DTD SVG 1.1//EN" "http://www.w3.org/Graphics/SVG/1.1/DTD/svg11.dtd">
<svg width="100%" height="100%" viewBox="0 0 605 596" version="1.1" xmlns="http://www.w3.org/2000/svg" xmlns:xlink="http://www.w3.org/1999/xlink" xml:space="preserve" xmlns:serif="http://www.serif.com/" style="fill-rule:evenodd;clip-rule:evenodd;stroke-linejoin:round;stroke-miterlimit:2;">
    <g transform="matrix(4.16667,0,0,4.16667,-1200,-2104.17)">
        <g>
            <g transform="matrix(1,0,0,1,230.838,-130.205)">
                <rect x="119.474" y="740.971" width="18.929" height="7.234" style="fill:rgb(20,142,23);fill-rule:nonzero;"/>
            </g>
            <g transform="matrix(1,0,0,1,230.838,-130.205)">
                <path d="M180.101,682.71C179.794,681.234 170.647,687.564 170.012,688.297C169.867,688.467 169.728,688.635 169.601,688.804C168.288,686.552 168.788,686.192 168.355,681.102C168.184,679.09 167.817,676.718 165.949,675.945C164.698,675.431 163.35,675.813 161.996,676.195C160.707,676.559 159.413,676.923 158.192,676.513C156.185,675.842 155.418,673.496 154.438,671.617C153.186,669.222 151.174,667.226 148.761,665.994C148.097,667.977 146.772,670.22 144.336,669.9C140.527,669.41 140.696,663.177 136.616,663.098C133.458,663.033 133.834,667.68 127.584,667.807L127.579,667.807L127.569,667.804C125.462,667.056 125.296,666.6 124.414,665.857C123.118,664.763 121.829,662.968 119.971,663.004C115.896,663.086 116.061,669.316 112.25,669.811C109.815,670.127 108.491,667.888 107.827,665.9C105.417,667.133 103.405,669.129 102.151,671.527C101.171,673.402 100.404,675.75 98.398,676.422C97.177,676.832 95.882,676.468 94.594,676.104C93.24,675.721 91.893,675.338 90.642,675.854C86.825,677.427 88.895,683.158 88.246,687.025C87.213,686.044 78.524,680.072 78.226,681.507C77.292,686.012 76.063,691.912 77.243,696.447C79.245,704.135 83.178,706.53 83.178,706.53C84.157,726.316 104.054,742.127 128.483,742.187C153.393,742.187 172.784,726.28 174.05,707.025C174.05,707.025 179.854,702.373 181.081,697.648C182.26,693.115 181.033,687.214 180.101,682.71Z" style="fill:rgb(20,142,23);fill-rule:nonzero;"/>
            </g>
            <g transform="matrix(1,0,0,1,230.838,-130.205)">
                <path d="M163.426,697.537C164.996,683.897 150.763,673.746 137.47,678.579C135.261,676.1 131.79,674.494 127.874,674.494C124.254,674.494 121.015,675.867 118.799,678.031C105.919,674.697 93.229,684.322 94.315,697.019C90.274,699.977 87.67,704.555 87.67,709.708C87.67,718.92 96.028,726.508 106.339,725.803C110.723,732.357 118.724,736.746 127.874,736.746C137.136,736.746 145.219,732.247 149.566,725.558C160.367,727.5 170.344,720.006 170.344,710.101C170.344,704.964 167.621,700.414 163.426,697.537Z" style="fill:rgb(188,192,206);fill-rule:nonzero;"/>
            </g>
            <g transform="matrix(1,0,0,1,230.838,-130.205)">
                <path d="M156.25,696.196C157.241,687.58 150.111,680.236 141.151,680.236C139.232,680.236 137.405,680.588 135.715,681.201C132.037,677.062 124.916,676.849 120.917,680.767C119.615,680.432 118.25,680.236 116.834,680.236C108.042,680.236 100.821,687.226 101.554,695.783C98.35,698.125 96.285,701.752 96.285,705.834C96.285,713.127 102.905,719.133 111.064,718.574C114.533,723.762 120.868,727.236 128.11,727.236C135.441,727.236 141.841,723.675 145.281,718.38C153.831,719.918 161.729,713.985 161.729,706.144C161.729,702.076 159.572,698.474 156.25,696.196Z" style="fill:rgb(219,210,175);fill-rule:nonzero;"/>
            </g>
            <g transform="matrix(1,0,0,1,230.838,-130.205)">
                <path d="M147.442,695.243C148.112,689.416 143.291,684.443 137.225,684.443C135.927,684.443 134.689,684.68 133.546,685.097C132.363,683.765 130.501,682.902 128.399,682.902C126.458,682.902 124.72,683.64 123.533,684.803C122.652,684.574 121.729,684.443 120.771,684.443C114.817,684.443 109.935,689.176 110.43,694.964C108.263,696.549 106.865,699.002 106.865,701.764C106.865,706.69 111.339,710.771 116.881,710.385C119.229,713.892 123.502,716.247 128.399,716.247C133.359,716.247 137.681,713.834 140.009,710.254C145.802,711.301 151.149,707.279 151.149,701.974C151.149,699.222 149.69,696.785 147.442,695.243Z" style="fill:rgb(234,228,195);fill-rule:nonzero;"/>
            </g>
            <g transform="matrix(1,0,0,1,230.838,-130.205)">
                <path d="M178.834,702.016C177.425,713.517 166.901,733.657 156.318,738.523C151.841,740.58 148.584,740.678 128.871,743.063C129.666,736.566 132.832,729.953 137.952,724.896C140.558,722.306 143.581,720.267 146.899,718.579C155.521,714.173 164.161,712.963 170.024,709.842C173.857,707.814 177.885,703.324 178.834,702.016Z" style="fill:rgb(30,175,40);fill-rule:nonzero;"/>
            </g>
            <g transform="matrix(1,0,0,1,230.838,-130.205)">
                <path d="M128.871,743.063C128.558,743.019 113.455,741.211 113.129,741.172C104.176,740.102 97.888,739.133 90.517,728.542C85.246,720.978 81.217,712.207 80.104,703.175C80.606,704.207 84.134,707.931 87.676,709.812L87.724,709.842C91.918,712.079 96.471,712.991 102.808,715.224C109.893,717.693 115.963,720.658 120.873,726.016C124.858,730.353 127.437,735.623 128.483,740.742C128.627,741.406 128.765,742.213 128.871,743.063Z" style="fill:rgb(30,175,40);fill-rule:nonzero;"/>
            </g>
            <g transform="matrix(1,0,0,1,230.838,-130.205)">
                <path d="M146.847,725.062C145.878,725.062 146.586,723.424 147.986,722.107C155.119,715.404 163.099,717.184 169.558,712.732C165.234,717.828 156.965,717.408 151.914,721.785C149.111,724.213 147.545,725.062 146.847,725.062Z" style="fill:rgb(192,233,195);fill-rule:nonzero;"/>
            </g>
            <g transform="matrix(1,0,0,1,230.838,-130.205)">
                <path d="M114.75,726.117C114.052,726.117 112.486,725.269 109.683,722.84C104.633,718.464 96.362,718.884 92.039,713.787C98.493,718.234 106.484,716.467 113.612,723.164C115.012,724.479 115.719,726.117 114.75,726.117Z" style="fill:rgb(192,233,195);fill-rule:nonzero;"/>
            </g>
            <g transform="matrix(1,0,0,1,230.838,-130.205)">
                <path d="M143.29,691.883C143.29,693.905 141.103,695.545 138.403,695.545C135.704,695.545 133.517,693.905 133.517,691.883C133.517,689.857 135.704,688.219 138.403,688.219C141.103,688.219 143.29,689.857 143.29,691.883Z" style="fill:white;fill-rule:nonzero;"/>
            </g>
        </g>
    </g>
</svg>
