<?xml version="1.0" encoding="UTF-8" standalone="no"?>
<!DOCTYPE svg PUBLIC "-//W3C//DTD SVG 1.1//EN" "http://www.w3.org/Graphics/SVG/1.1/DTD/svg11.dtd">
<svg width="100%" height="100%" viewBox="0 0 592 596" version="1.1" xmlns="http://www.w3.org/2000/svg" xmlns:xlink="http://www.w3.org/1999/xlink" xml:space="preserve" xmlns:serif="http://www.serif.com/" style="fill-rule:evenodd;clip-rule:evenodd;stroke-linejoin:round;stroke-miterlimit:2;">
    <g transform="matrix(4.16667,0,0,4.16667,-308.333,-2104.17)">
        <g>
            <g transform="matrix(1,0,0,1,-755.349,-113.282)">
                <path d="M943.214,703.556C938.409,730.378 923.525,741.437 899.239,741.437C874.953,741.437 858.883,730.607 855.265,703.556C852.122,680.058 874.006,657.51 899.239,665.679C927.49,656.685 947.237,681.101 943.214,703.556Z" style="fill:rgb(249,40,40);fill-rule:nonzero;"/>
            </g>
            <g transform="matrix(1,0,0,1,-755.349,-113.282)">
                <path d="M879.232,690.842C871.973,696.502 871.084,708.929 866.983,706.982C859.068,703.222 862.498,691.912 866.445,683.596C870.393,675.279 875.833,674.8 881.079,677.291C886.325,679.779 885.499,685.957 879.232,690.842Z" style="fill:rgb(255,125,125);fill-rule:nonzero;"/>
            </g>
            <g transform="matrix(1,0,0,1,-755.349,-113.282)">
                <path d="M898.729,663.248C895.208,653.229 897.099,642.664 907.634,637.128L910.865,645.115C903.246,647.599 902.021,654.054 903.077,661.871L903.09,661.933L898.729,663.248Z" style="fill:rgb(57,158,29);fill-rule:nonzero;"/>
            </g>
            <g transform="matrix(1,0,0,1,-755.349,-113.282)">
                <path d="M911.004,663.385C910.841,660.279 918.832,659.123 916.742,653.875C909.314,659.123 903.727,657.521 899.864,662.744C896.002,657.521 890.413,659.123 882.986,653.875C880.897,659.123 889.338,659.832 889.175,662.935C882.869,664.207 877.624,660.278 868.791,658.508C874.132,664.918 875.523,670.426 888.846,667.996C892.206,667.535 898.376,669.971 898.98,669.892C899.998,669.761 907.373,667.012 912.233,667.9C928.415,668.996 925.595,664.918 930.938,658.508C922.104,660.278 917.311,664.658 911.004,663.385Z" style="fill:rgb(57,158,29);fill-rule:nonzero;"/>
            </g>
        </g>
    </g>
</svg>
