<?xml version="1.0" encoding="UTF-8" standalone="no"?>
<!DOCTYPE svg PUBLIC "-//W3C//DTD SVG 1.1//EN" "http://www.w3.org/Graphics/SVG/1.1/DTD/svg11.dtd">
<svg width="100%" height="100%" viewBox="0 0 600 596" version="1.1" xmlns="http://www.w3.org/2000/svg" xmlns:xlink="http://www.w3.org/1999/xlink" xml:space="preserve" xmlns:serif="http://www.serif.com/" style="fill-rule:evenodd;clip-rule:evenodd;stroke-linejoin:round;stroke-miterlimit:2;">
    <g transform="matrix(4.16667,0,0,4.16667,-2100,-1204.17)">
        <g>
            <g transform="matrix(1,0,0,1,262.293,-153.038)">
                <path d="M315.095,487.664C312.276,491.19 309.973,495.747 307.439,500.832C304.96,492.736 300.646,483.534 293.952,473.225C287.261,483.534 282.941,492.736 280.472,500.832C277.931,495.747 275.635,491.19 272.812,487.664C261.062,507.742 260.242,542.269 287.17,542.269C289.528,542.269 291.8,541.93 293.952,541.316C296.108,541.93 298.382,542.269 300.732,542.269C327.671,542.269 326.841,507.742 315.095,487.664Z" style="fill:rgb(255,121,0);fill-rule:nonzero;"/>
            </g>
            <g transform="matrix(1,0,0,1,262.293,-153.038)">
                <path d="M307.692,504.449C305.886,506.709 304.41,509.63 302.786,512.889C301.197,507.699 298.432,501.803 294.143,495.196C289.854,501.803 287.086,507.699 285.504,512.889C283.875,509.63 282.404,506.709 280.594,504.449C273.065,517.318 272.539,539.443 289.796,539.443C291.308,539.443 292.764,539.226 294.143,538.834C295.524,539.226 296.981,539.443 298.488,539.443C315.752,539.443 315.22,517.318 307.692,504.449Z" style="fill:rgb(255,206,0);fill-rule:nonzero;"/>
            </g>
            <g transform="matrix(1,0,0,1,262.293,-153.038)">
                <path d="M355.754,524.902C357.938,517.441 355.55,509.529 349.757,504.38C344.545,499.746 336.574,499.406 329.996,501.723C307.921,509.504 293.856,543.824 260.222,530.771C253.591,528.199 256.815,534.639 259.01,537.41C267.188,547.761 278.047,551.281 291.345,552.478C326.35,555.623 351.849,538.278 355.754,524.902Z" style="fill:rgb(229,48,0);fill-rule:nonzero;"/>
            </g>
            <g transform="matrix(1,0,0,1,262.293,-153.038)">
                <path d="M355.094,511.126L353.688,508.662L368.085,499.486C369.067,498.925 370.317,499.267 370.879,500.248C371.44,501.232 371.095,502.48 370.115,503.041L355.094,511.126Z" style="fill:rgb(119,171,32);fill-rule:nonzero;"/>
            </g>
            <g transform="matrix(1,0,0,1,262.293,-153.038)">
                <path d="M362.587,518.532C364.407,518.282 366.148,517.392 367.43,515.878L357.957,507.859L355.871,495.623C353.915,495.957 352.265,497.004 351.124,498.447L348.941,494.624C345.239,496.736 343.951,501.451 346.064,505.154L354.237,519.474C356.349,523.178 361.064,524.467 364.767,522.355L362.587,518.532Z" style="fill:rgb(84,119,16);fill-rule:nonzero;"/>
            </g>
        </g>
    </g>
</svg>
