<?xml version="1.0" encoding="UTF-8" standalone="no"?>
<!DOCTYPE svg PUBLIC "-//W3C//DTD SVG 1.1//EN" "http://www.w3.org/Graphics/SVG/1.1/DTD/svg11.dtd">
<svg width="100%" height="100%" viewBox="0 0 596 600" version="1.1" xmlns="http://www.w3.org/2000/svg" xmlns:xlink="http://www.w3.org/1999/xlink" xml:space="preserve" xmlns:serif="http://www.serif.com/" style="fill-rule:evenodd;clip-rule:evenodd;stroke-linejoin:round;stroke-miterlimit:2;">
    <g transform="matrix(4.16667,0,0,4.16667,-3004.17,-300)">
        <g>
            <g transform="matrix(1,0,0,1,-288.381,18.3618)">
                <path d="M1054.95,148.563C1052.33,131.415 1054.01,97.464 1061.07,86.088C1069.67,72.243 1080.91,81.392 1079.13,94.771C1076.96,111.043 1077.68,127.964 1082.26,145.114C1087.29,163.946 1058.5,169.945 1054.95,148.563Z" style="fill:rgb(35,145,48);fill-rule:nonzero;"/>
            </g>
            <g transform="matrix(1,0,0,1,-288.381,18.3618)">
                <path d="M1071.69,79.359C1071.69,79.359 1062.9,79.182 1062.58,73.355C1062.58,73.355 1066.29,72.613 1068.09,74.096C1069.89,75.58 1070.63,76.745 1070.63,76.745C1070.63,76.745 1068.93,73.884 1072.96,69.328C1072.96,69.328 1076.35,73.461 1073.6,77.593C1073.6,77.593 1077.73,74.626 1081.12,77.911C1081.12,77.911 1078.78,81.564 1071.69,79.359Z" style="fill:rgb(255,200,44);fill-rule:nonzero;"/>
            </g>
            <g transform="matrix(1,0,0,1,-288.381,18.3618)">
                <path d="M1055.48,151.036C1055.48,151.036 1060.97,159.134 1064.64,158.467C1064.64,158.467 1060.95,145.878 1063.45,134.212C1063.45,134.212 1063.5,156.489 1069.79,158.545C1069.79,158.545 1072.91,147.878 1071.85,140.545C1071.85,140.545 1074.72,153.519 1074.19,158.495C1074.19,158.495 1076.47,159.457 1081.93,154.22C1081.93,154.22 1079.47,161.676 1069.62,162.217C1069.62,162.217 1058.85,162.816 1055.48,151.036Z" style="fill:rgb(100,204,92);fill-rule:nonzero;"/>
            </g>
            <g transform="matrix(1,0,0,1,-288.381,18.3618)">
                <path d="M1062.29,117.22C1062.29,118.568 1061.69,119.659 1060.95,119.659C1060.22,119.659 1059.62,118.568 1059.62,117.22C1059.62,115.872 1060.22,114.78 1060.95,114.78C1061.69,114.78 1062.29,115.872 1062.29,117.22Z" style="fill:rgb(100,204,92);fill-rule:nonzero;"/>
            </g>
            <g transform="matrix(1,0,0,1,-288.381,18.3618)">
                <path d="M1070.29,124.22C1070.29,125.568 1069.69,126.659 1068.95,126.659C1068.22,126.659 1067.62,125.568 1067.62,124.22C1067.62,122.872 1068.22,121.78 1068.95,121.78C1069.69,121.78 1070.29,122.872 1070.29,124.22Z" style="fill:rgb(100,204,92);fill-rule:nonzero;"/>
            </g>
            <g transform="matrix(1,0,0,1,-288.381,18.3618)">
                <path d="M1060.79,134.457C1060.79,135.805 1060.19,136.898 1059.45,136.898C1058.72,136.898 1058.12,135.805 1058.12,134.457C1058.12,133.11 1058.72,132.017 1059.45,132.017C1060.19,132.017 1060.79,133.11 1060.79,134.457Z" style="fill:rgb(100,204,92);fill-rule:nonzero;"/>
            </g>
            <g transform="matrix(1,0,0,1,-288.381,18.3618)">
                <path d="M1069.65,142.291C1069.65,143.639 1069.05,144.731 1068.31,144.731C1067.58,144.731 1066.98,143.639 1066.98,142.291C1066.98,140.943 1067.58,139.851 1068.31,139.851C1069.05,139.851 1069.65,140.943 1069.65,142.291Z" style="fill:rgb(100,204,92);fill-rule:nonzero;"/>
            </g>
            <g transform="matrix(1,0,0,1,-288.381,18.3618)">
                <path d="M1078.12,135.552C1078.12,136.9 1077.52,137.992 1076.78,137.992C1076.04,137.992 1075.45,136.9 1075.45,135.552C1075.45,134.204 1076.04,133.112 1076.78,133.112C1077.52,133.112 1078.12,134.204 1078.12,135.552Z" style="fill:rgb(100,204,92);fill-rule:nonzero;"/>
            </g>
            <g transform="matrix(1,0,0,1,-288.381,18.3618)">
                <path d="M1074.51,113.064C1074.51,114.411 1073.92,115.504 1073.18,115.504C1072.45,115.504 1071.85,114.411 1071.85,113.064C1071.85,111.716 1072.45,110.623 1073.18,110.623C1073.92,110.623 1074.51,111.716 1074.51,113.064Z" style="fill:rgb(100,204,92);fill-rule:nonzero;"/>
            </g>
            <g transform="matrix(1,0,0,1,-288.381,18.3618)">
                <path d="M1063.91,102.993C1063.91,104.34 1063.31,105.433 1062.58,105.433C1061.84,105.433 1061.24,104.34 1061.24,102.993C1061.24,101.645 1061.84,100.553 1062.58,100.553C1063.31,100.553 1063.91,101.645 1063.91,102.993Z" style="fill:rgb(100,204,92);fill-rule:nonzero;"/>
            </g>
            <g transform="matrix(1,0,0,1,-288.381,18.3618)">
                <path d="M1074.24,94.326C1074.24,95.675 1073.65,96.767 1072.91,96.767C1072.17,96.767 1071.58,95.675 1071.58,94.326C1071.58,92.979 1072.17,91.887 1072.91,91.887C1073.65,91.887 1074.24,92.979 1074.24,94.326Z" style="fill:rgb(100,204,92);fill-rule:nonzero;"/>
            </g>
            <g transform="matrix(1,0,0,1,-288.381,18.3618)">
                <path d="M1067.62,85.66C1067.62,87.008 1067.02,88.1 1066.29,88.1C1065.55,88.1 1064.95,87.008 1064.95,85.66C1064.95,84.312 1065.55,83.22 1066.29,83.22C1067.02,83.22 1067.62,84.312 1067.62,85.66Z" style="fill:rgb(100,204,92);fill-rule:nonzero;"/>
            </g>
            <g transform="matrix(1,0,0,1,-288.381,18.3618)">
                <path d="M1080.78,150.657C1080.78,152.005 1080.18,153.097 1079.45,153.097C1078.71,153.097 1078.12,152.005 1078.12,150.657C1078.12,149.309 1078.71,148.217 1079.45,148.217C1080.18,148.217 1080.78,149.309 1080.78,150.657Z" style="fill:rgb(100,204,92);fill-rule:nonzero;"/>
            </g>
            <g transform="matrix(1,0,0,1,-288.381,18.3618)">
                <path d="M1109.4,168.19C1111.6,153.816 1110.19,125.356 1104.27,115.821C1097.07,104.216 1087.64,111.885 1089.14,123.099C1090.96,136.739 1090.35,150.922 1086.51,165.298C1082.3,181.084 1106.43,186.112 1109.4,168.19Z" style="fill:rgb(72,181,60);fill-rule:nonzero;"/>
            </g>
            <g transform="matrix(1,0,0,1,-288.381,18.3618)">
                <path d="M1095.38,110.181C1095.38,110.181 1102.75,110.033 1103.01,105.148C1103.01,105.148 1099.9,104.526 1098.39,105.769C1096.88,107.013 1096.26,107.99 1096.26,107.99C1096.26,107.99 1097.68,105.592 1094.31,101.773C1094.31,101.773 1091.47,105.236 1093.78,108.7C1093.78,108.7 1090.31,106.214 1087.47,108.967C1087.47,108.967 1089.44,112.029 1095.38,110.181Z" style="fill:rgb(255,200,44);fill-rule:nonzero;"/>
            </g>
            <g transform="matrix(1,0,0,1,-288.381,18.3618)">
                <path d="M1108.96,170.263C1108.96,170.263 1104.36,177.05 1101.28,176.491C1101.28,176.491 1104.38,165.939 1102.28,156.159C1102.28,156.159 1102.24,174.833 1096.97,176.557C1096.97,176.557 1094.35,167.615 1095.24,161.469C1095.24,161.469 1092.83,172.344 1093.28,176.515C1093.28,176.515 1091.37,177.321 1086.79,172.931C1086.79,172.931 1088.85,179.181 1097.11,179.634C1097.11,179.634 1106.14,180.136 1108.96,170.263Z" style="fill:rgb(100,204,92);fill-rule:nonzero;"/>
            </g>
            <g transform="matrix(1,0,0,1,-288.381,18.3618)">
                <path d="M1103.26,141.917C1103.26,143.046 1103.76,143.962 1104.38,143.962C1104.99,143.962 1105.49,143.046 1105.49,141.917C1105.49,140.787 1104.99,139.871 1104.38,139.871C1103.76,139.871 1103.26,140.787 1103.26,141.917Z" style="fill:rgb(100,204,92);fill-rule:nonzero;"/>
            </g>
            <g transform="matrix(1,0,0,1,-288.381,18.3618)">
                <path d="M1096.55,147.785C1096.55,148.914 1097.05,149.83 1097.67,149.83C1098.29,149.83 1098.79,148.914 1098.79,147.785C1098.79,146.655 1098.29,145.739 1097.67,145.739C1097.05,145.739 1096.55,146.655 1096.55,147.785Z" style="fill:rgb(100,204,92);fill-rule:nonzero;"/>
            </g>
            <g transform="matrix(1,0,0,1,-288.381,18.3618)">
                <path d="M1104.51,156.366C1104.51,157.495 1105.02,158.411 1105.63,158.411C1106.25,158.411 1106.75,157.495 1106.75,156.366C1106.75,155.236 1106.25,154.32 1105.63,154.32C1105.02,154.32 1104.51,155.236 1104.51,156.366Z" style="fill:rgb(100,204,92);fill-rule:nonzero;"/>
            </g>
            <g transform="matrix(1,0,0,1,-288.381,18.3618)">
                <path d="M1097.09,162.931C1097.09,164.061 1097.59,164.977 1098.2,164.977C1098.82,164.977 1099.32,164.061 1099.32,162.931C1099.32,161.803 1098.82,160.887 1098.2,160.887C1097.59,160.887 1097.09,161.803 1097.09,162.931Z" style="fill:rgb(100,204,92);fill-rule:nonzero;"/>
            </g>
            <g transform="matrix(1,0,0,1,-288.381,18.3618)">
                <path d="M1089.99,157.283C1089.99,158.412 1090.49,159.328 1091.11,159.328C1091.72,159.328 1092.22,158.412 1092.22,157.283C1092.22,156.153 1091.72,155.237 1091.11,155.237C1090.49,155.237 1089.99,156.153 1089.99,157.283Z" style="fill:rgb(100,204,92);fill-rule:nonzero;"/>
            </g>
            <g transform="matrix(1,0,0,1,-288.381,18.3618)">
                <path d="M1093.01,138.433C1093.01,139.563 1093.51,140.479 1094.12,140.479C1094.74,140.479 1095.24,139.563 1095.24,138.433C1095.24,137.304 1094.74,136.388 1094.12,136.388C1093.51,136.388 1093.01,137.304 1093.01,138.433Z" style="fill:rgb(100,204,92);fill-rule:nonzero;"/>
            </g>
            <g transform="matrix(1,0,0,1,-288.381,18.3618)">
                <path d="M1101.9,129.992C1101.9,131.121 1102.4,132.037 1103.01,132.037C1103.63,132.037 1104.13,131.121 1104.13,129.992C1104.13,128.862 1103.63,127.946 1103.01,127.946C1102.4,127.946 1101.9,128.862 1101.9,129.992Z" style="fill:rgb(100,204,92);fill-rule:nonzero;"/>
            </g>
            <g transform="matrix(1,0,0,1,-288.381,18.3618)">
                <path d="M1093.23,122.727C1093.23,123.856 1093.73,124.772 1094.35,124.772C1094.97,124.772 1095.47,123.856 1095.47,122.727C1095.47,121.597 1094.97,120.681 1094.35,120.681C1093.73,120.681 1093.23,121.597 1093.23,122.727Z" style="fill:rgb(100,204,92);fill-rule:nonzero;"/>
            </g>
            <g transform="matrix(1,0,0,1,-288.381,18.3618)">
                <path d="M1098.79,115.462C1098.79,116.592 1099.29,117.508 1099.9,117.508C1100.52,117.508 1101.02,116.592 1101.02,115.462C1101.02,114.332 1100.52,113.417 1099.9,113.417C1099.29,113.417 1098.79,114.332 1098.79,115.462Z" style="fill:rgb(100,204,92);fill-rule:nonzero;"/>
            </g>
            <g transform="matrix(1,0,0,1,-288.381,18.3618)">
                <path d="M1087.75,169.945C1087.75,171.075 1088.25,171.991 1088.87,171.991C1089.49,171.991 1089.99,171.075 1089.99,169.945C1089.99,168.815 1089.49,167.899 1088.87,167.899C1088.25,167.899 1087.75,168.815 1087.75,169.945Z" style="fill:rgb(100,204,92);fill-rule:nonzero;"/>
            </g>
        </g>
    </g>
</svg>
