<?xml version="1.0" encoding="UTF-8" standalone="no"?>
<!DOCTYPE svg PUBLIC "-//W3C//DTD SVG 1.1//EN" "http://www.w3.org/Graphics/SVG/1.1/DTD/svg11.dtd">
<svg width="100%" height="100%" viewBox="0 0 605 596" version="1.1" xmlns="http://www.w3.org/2000/svg" xmlns:xlink="http://www.w3.org/1999/xlink" xml:space="preserve" xmlns:serif="http://www.serif.com/" style="fill-rule:evenodd;clip-rule:evenodd;stroke-linejoin:round;stroke-miterlimit:2;">
    <g transform="matrix(4.16667,0,0,4.16667,-3895.83,-1204.17)">
        <g>
            <g transform="matrix(1,0,0,1,293.64,-149.675)">
                <path d="M713.378,535.111L693.924,535.111L692.902,543.778L695.635,542.234L697.933,543.778L700.796,542.234L703.651,543.778L706.506,542.234L709.37,543.778L711.667,542.234L714.4,543.778L713.378,535.111Z" style="fill:rgb(114,96,63);fill-rule:nonzero;"/>
            </g>
            <g transform="matrix(1,0,0,1,293.64,-149.675)">
                <path d="M747.746,511.16C744.483,491.291 716.197,484.337 716.194,482.149L716.194,468.3L691.109,468.3L691.109,482.149C691.106,484.337 662.82,491.291 659.557,511.16C655.789,534.103 687.019,534.161 703.651,534.161C720.284,534.161 751.515,534.103 747.746,511.16Z" style="fill:rgb(173,144,109);fill-rule:nonzero;"/>
            </g>
            <g transform="matrix(1,0,0,1,293.64,-149.675)">
                <path d="M737.995,511.16C735.453,491.291 712.464,485.287 712.462,483.099L712.462,468.3L694.841,468.3L694.841,483.099C694.839,485.287 671.85,491.291 669.309,511.16C666.373,534.103 690.696,534.161 703.651,534.161C716.606,534.161 740.929,534.103 737.995,511.16Z" style="fill:rgb(188,158,125);fill-rule:nonzero;"/>
            </g>
            <g transform="matrix(1,0,0,1,293.64,-149.675)">
                <path d="M708.197,468.3L698.843,468.3C698.843,498.969 686.93,508.549 687.107,524.842C687.287,541.404 720,541.824 720.196,524.842C720.362,510.447 708.197,497.816 708.197,468.3Z" style="fill:rgb(216,193,152);fill-rule:nonzero;"/>
            </g>
            <g transform="matrix(1,0,0,1,293.64,-149.675)">
                <path d="M721.686,544.525C720.353,543.484 719.984,541.811 720.309,540.346C742.995,552.156 769.829,530.176 761.587,508.086C762.6,507.722 763.783,508.025 764.563,509.131C782.541,534.658 747.265,564.472 721.686,544.525Z" style="fill:rgb(216,193,152);fill-rule:nonzero;"/>
            </g>
            <g transform="matrix(1,0,0,1,293.64,-149.675)">
                <path d="M720.309,540.346C720.696,538.592 722.076,537.129 723.983,537.387C739.827,539.544 756.533,527.14 759.713,510.435C759.943,509.209 760.701,508.392 761.587,508.086C769.829,530.176 742.995,552.156 720.309,540.346Z" style="fill:rgb(188,158,125);fill-rule:nonzero;"/>
            </g>
        </g>
    </g>
</svg>
