<?xml version="1.0" encoding="UTF-8" standalone="no"?><!DOCTYPE svg PUBLIC "-//W3C//DTD SVG 1.1//EN" "http://www.w3.org/Graphics/SVG/1.1/DTD/svg11.dtd"><svg width="100%" height="100%" viewBox="0 0 592 600" version="1.1" xmlns="http://www.w3.org/2000/svg" xmlns:xlink="http://www.w3.org/1999/xlink" xml:space="preserve" xmlns:serif="http://www.serif.com/" style="fill-rule:evenodd;clip-rule:evenodd;stroke-linejoin:round;stroke-miterlimit:2;"><g><path d="M291.202,455.275c0,-0 -84.504,5.596 -132.187,-9.375c-75.205,-23.608 -82.15,-104.167 -82.15,-104.167l215.283,6.95l-0.946,106.592Z" style="fill:#84a820;fill-rule:nonzero;"/><path d="M292.131,455.275c0,-0 84.504,5.596 132.188,-9.375c75.204,-23.608 82.15,-104.167 82.15,-104.167l-215.279,6.95l0.941,106.592Z" style="fill:#84a820;fill-rule:nonzero;"/><path d="M322.702,471.529c0,15.721 -12.75,28.471 -28.471,28.471c-15.725,0 -28.471,-12.75 -28.471,-28.471l0,-32.504c0,-15.721 12.746,-28.471 28.471,-28.471c15.721,0 28.471,12.75 28.471,28.471l0,32.504Z" style="fill:#d1d883;fill-rule:nonzero;"/><path d="M465.119,281.317c-0,90.337 -68.834,164.583 -156.875,173.125c-5.625,0.546 -11.296,0.833 -17.042,0.833l0,-347.912c96.042,-0 173.917,77.87 173.917,173.954Z" style="fill:#4e660a;fill-rule:nonzero;"/><path d="M291.202,107.363l0,347.912c-4.583,-0 -9.125,-0.167 -13.625,-0.537c-89.708,-6.963 -160.333,-81.921 -160.333,-173.421c-0,-96.084 77.871,-173.954 173.958,-173.954Z" style="fill:#698e19;fill-rule:nonzero;"/><path d="M418.994,318.608c-50.584,26.5 -92.084,73.042 -110.584,95.921l0,37.75c0,0.746 -0.041,1.454 -0.166,2.163c-5.625,0.546 -11.296,0.833 -17.042,0.833c-4.583,-0 -9.125,-0.167 -13.625,-0.537c-0.167,-0.921 -0.25,-1.88 -0.25,-2.838l0,-33.204c-16.458,-20.879 -60.042,-71.875 -113.879,-100.088c-3.871,-2.041 -5.538,-6.708 -3.667,-10.666l0.129,-0.292c2.038,-4.292 7.246,-5.917 11.459,-3.704c45.916,24.079 83.916,62.75 105.958,88.412l0,-44.833c-15.083,-17.458 -63,-69.167 -111.212,-81.25c-4.205,-1.038 -6.917,-5.083 -6.205,-9.333l0,-0.084c0.792,-4.745 5.417,-7.954 10.121,-6.791c43.379,10.837 84.629,48.587 107.296,72.546l0,-39.463c-14.333,-13.746 -54.75,-50.208 -90.583,-60.454c-4.167,-1.171 -6.792,-5.208 -6.046,-9.458l0.046,-0.084c0.829,-4.754 5.583,-7.879 10.25,-6.546c32.375,9.213 66.416,36.046 86.333,53.838l0,-29.921c-9.542,-10.25 -31.292,-31.954 -52.542,-41.667c-3.875,-1.791 -5.958,-6.083 -4.625,-10.166l0,-0.084c1.5,-4.62 6.709,-7.121 11.125,-5.12c17.209,7.791 34,21.787 46.042,33.287l0,-54.167c0,-8.875 7.417,-15.996 16.375,-15.496c8.417,0.417 14.708,7.955 14.708,16.371l0,50.167c11.667,-10.708 26.875,-22.875 42.417,-29.996c4.542,-2.083 9.917,0.204 11.458,4.996c1.334,4.083 -0.75,8.417 -4.666,10.208c-19.084,8.709 -38.5,27.042 -49.209,38.171l0,30.496c20.25,-17.667 52.334,-42.167 82.959,-50.917c4.666,-1.333 9.5,1.792 10.333,6.584l0,0.046c0.792,4.204 -1.792,8.287 -5.958,9.458c-33.417,9.541 -70.75,41.787 -87.334,57.329l0,39.129c23.25,-23.962 62.625,-58.708 103.917,-69.042c0.667,-0.166 1.333,-0.254 1.958,-0.254c4,0 7.584,2.917 8.25,7.046c0.667,4.288 -2,8.333 -6.166,9.371c-45.167,11.296 -90,57.296 -107.959,77.504l0,44.746c22.459,-25.537 58.959,-61.625 102.667,-84.579c4.208,-2.213 9.417,-0.546 11.458,3.746c1.917,4 0.375,8.875 -3.541,10.916Z" style="fill:#94b228;fill-rule:nonzero;"/></g></svg>