<?xml version="1.0" encoding="UTF-8" standalone="no"?>
<!DOCTYPE svg PUBLIC "-//W3C//DTD SVG 1.1//EN" "http://www.w3.org/Graphics/SVG/1.1/DTD/svg11.dtd">
<svg width="100%" height="100%" viewBox="0 0 596 596" version="1.1" xmlns="http://www.w3.org/2000/svg" xmlns:xlink="http://www.w3.org/1999/xlink" xml:space="preserve" xmlns:serif="http://www.serif.com/" style="fill-rule:evenodd;clip-rule:evenodd;stroke-linejoin:round;stroke-miterlimit:2;">
    <g transform="matrix(4.16667,0,0,4.16667,-3004.17,-1204.17)">
        <g>
            <g transform="matrix(1,0,0,1,279.378,-154.034)">
                <path d="M470.678,547.916L514.979,523.506C523.404,534.521 521.159,547.18 504.865,552.234L505.137,549.037C505.015,549.447 500.279,554.171 494.025,554.371L494.013,551.566C488.805,554.179 483.633,552.681 483.633,552.681L484.649,549.422L484.619,549.305C477.096,552.332 470.678,547.916 470.678,547.916Z" style="fill:rgb(80,114,15);fill-rule:nonzero;"/>
            </g>
            <g transform="matrix(1,0,0,1,279.378,-154.034)">
                <path d="M514.979,523.506L470.678,547.916C470.678,547.916 470.373,540.131 476.951,535.389L476.868,535.301L473.569,534.418C473.569,534.418 475.066,529.246 480.059,526.24L477.693,524.73C481.204,519.552 487.727,518.072 488.139,518.188L485.291,516.709C498.237,505.657 510.154,510.463 514.979,523.506Z" style="fill:rgb(70,96,14);fill-rule:nonzero;"/>
            </g>
            <g transform="matrix(1,0,0,1,279.378,-154.034)">
                <path d="M511.051,521.693L513.568,520.305C514.091,521.306 514.562,522.375 514.979,523.506C515.711,524.462 516.362,525.43 516.932,526.408L514.413,527.796C503.625,533.74 496.255,533.822 496.255,533.822C496.255,533.822 500.263,527.637 511.051,521.693Z" style="fill:rgb(56,73,3);fill-rule:nonzero;"/>
            </g>
            <g transform="matrix(1,0,0,1,279.378,-154.034)">
                <path d="M478.508,469.761L507.466,511.232C497.401,520.775 484.576,519.883 477.827,504.214L481.036,504.144C480.615,504.066 475.417,499.857 474.556,493.659L477.345,493.351C474.195,488.449 475.137,483.148 475.137,483.148L478.486,483.813L478.599,483.77C474.795,476.609 478.508,469.761 478.508,469.761Z" style="fill:rgb(80,114,15);fill-rule:nonzero;"/>
            </g>
            <g transform="matrix(1,0,0,1,279.378,-154.034)">
                <path d="M507.466,511.232L478.508,469.761C478.508,469.761 486.216,468.634 491.627,474.674L491.706,474.583L492.234,471.209C492.234,471.209 497.536,472.152 501.053,476.797L502.304,474.285C507.825,477.228 509.986,483.559 509.915,483.98L511.084,480.992C523.442,492.697 519.924,505.055 507.466,511.232Z" style="fill:rgb(70,96,14);fill-rule:nonzero;"/>
            </g>
            <g transform="matrix(1,0,0,1,279.378,-154.034)">
                <path d="M508.852,507.135L510.498,509.492C509.557,510.117 508.545,510.697 507.466,511.232C506.591,512.061 505.697,512.811 504.785,513.482L503.139,511.123C496.087,501.023 495.227,493.704 495.227,493.704C495.227,493.704 501.8,497.035 508.852,507.135Z" style="fill:rgb(56,73,3);fill-rule:nonzero;"/>
            </g>
            <g transform="matrix(1,0,0,1,279.378,-154.034)">
                <path d="M549.875,472.312L522.318,514.728C509.695,508.986 505.705,496.765 517.69,484.625L518.959,487.573C518.874,487.154 520.822,480.755 526.242,477.628L527.576,480.097C530.936,475.336 536.203,474.218 536.203,474.218L536.844,477.572L536.926,477.66C542.133,471.444 549.875,472.312 549.875,472.312Z" style="fill:rgb(80,114,15);fill-rule:nonzero;"/>
            </g>
            <g transform="matrix(1,0,0,1,279.378,-154.034)">
                <path d="M522.318,514.728L549.875,472.312C549.875,472.312 553.815,479.033 550.25,486.316L550.364,486.355L553.689,485.578C553.689,485.578 554.809,490.845 551.824,495.849L554.622,496.065C553.968,502.287 548.913,506.67 548.496,506.761L551.705,506.722C545.5,522.572 532.725,523.954 522.318,514.728Z" style="fill:rgb(70,96,14);fill-rule:nonzero;"/>
            </g>
            <g transform="matrix(1,0,0,1,279.378,-154.034)">
                <path d="M526.639,514.474L525.072,516.887C524.14,516.248 523.221,515.529 522.318,514.728C521.223,514.23 520.192,513.683 519.229,513.09L520.796,510.679C527.506,500.349 533.966,496.801 533.966,496.801C533.966,496.801 533.349,504.144 526.639,514.474Z" style="fill:rgb(56,73,3);fill-rule:nonzero;"/>
            </g>
            <g transform="matrix(1,0,0,1,279.378,-154.034)">
                <path d="M551.02,558.023L512.494,517.449C521.051,506.179 534.587,505.642 544.776,521.457L541.449,521.9C541.903,521.933 548.167,525.791 550.313,532.256L547.472,532.904C551.741,537.732 551.83,543.455 551.83,543.455L548.207,543.139L548.099,543.196C553.505,550.34 551.02,558.023 551.02,558.023Z" style="fill:rgb(80,114,15);fill-rule:nonzero;"/>
            </g>
            <g transform="matrix(1,0,0,1,279.378,-154.034)">
                <path d="M512.494,517.449L551.02,558.023C551.02,558.023 543.22,560.107 536.366,554.338L536.303,554.441L536.432,558.076C536.432,558.076 530.722,557.691 526.121,553.178L525.325,555.982C518.981,553.504 515.453,547.051 515.442,546.595L514.828,549.894C499.595,538.927 500.767,525.431 512.494,517.449Z" style="fill:rgb(70,96,14);fill-rule:nonzero;"/>
            </g>
            <g transform="matrix(1,0,0,1,279.378,-154.034)">
                <path d="M511.877,521.949L509.688,519.642C510.542,518.873 511.478,518.141 512.494,517.449C513.237,516.472 514.017,515.572 514.831,514.758L517.021,517.066C526.404,526.945 528.778,534.599 528.778,534.599C528.778,534.599 521.26,531.832 511.877,521.949Z" style="fill:rgb(56,73,3);fill-rule:nonzero;"/>
            </g>
            <g transform="matrix(1,0,0,1,279.378,-154.034)">
                <path d="M533.675,490.546L510.912,514.435C503.506,509.238 502.415,500.922 511.559,494.577L512.018,496.619C512.013,496.34 514.031,492.471 517.882,491.117L518.44,492.86C521.167,490.211 524.679,490.126 524.679,490.126L524.688,492.353L524.729,492.42C528.814,489.059 533.675,490.546 533.675,490.546Z" style="fill:rgb(155,175,56);fill-rule:nonzero;"/>
            </g>
            <g transform="matrix(1,0,0,1,279.378,-154.034)">
                <path d="M510.912,514.435L533.675,490.546C533.675,490.546 535.395,495.329 532.234,499.57L532.302,499.609L534.528,499.511C534.528,499.511 534.613,503.021 532.099,505.873L533.866,506.347C532.7,510.259 528.933,512.461 528.654,512.471L530.716,512.831C524.834,522.25 516.477,521.602 510.912,514.435Z" style="fill:rgb(142,155,44);fill-rule:nonzero;"/>
            </g>
            <g transform="matrix(1,0,0,1,279.378,-154.034)">
                <path d="M513.711,514.792L512.418,516.149C511.897,515.629 511.395,515.056 510.912,514.435C510.269,513.985 509.673,513.511 509.127,513.014L510.421,511.656C515.965,505.838 520.533,504.338 520.533,504.338C520.533,504.338 519.255,508.973 513.711,514.792Z" style="fill:rgb(132,140,23);fill-rule:nonzero;"/>
            </g>
            <g transform="matrix(1,0,0,1,279.378,-154.034)">
                <path d="M495.811,537.488L512.232,514.503C519.136,518.017 521.06,524.935 514.073,531.413L513.438,529.736C513.474,529.972 512.229,533.496 509.128,535.106L508.445,533.695C506.453,536.269 503.486,536.764 503.486,536.764L503.211,534.876L503.168,534.824C500.109,538.166 495.811,537.488 495.811,537.488Z" style="fill:rgb(155,175,56);fill-rule:nonzero;"/>
            </g>
            <g transform="matrix(1,0,0,1,279.378,-154.034)">
                <path d="M512.232,514.503L495.811,537.488C495.811,537.488 493.778,533.641 495.946,529.666L495.884,529.64L494.01,529.992C494.01,529.992 493.516,527.027 495.304,524.306L493.748,524.12C494.267,520.662 497.195,518.342 497.431,518.303L495.64,518.245C499.493,509.553 506.655,509.097 512.232,514.503Z" style="fill:rgb(142,155,44);fill-rule:nonzero;"/>
            </g>
            <g transform="matrix(1,0,0,1,279.378,-154.034)">
                <path d="M509.817,514.537L510.751,513.23C511.256,513.61 511.75,514.033 512.232,514.503C512.833,514.806 513.395,515.137 513.918,515.492L512.984,516.8C508.984,522.399 505.292,524.219 505.292,524.219C505.292,524.219 505.818,520.136 509.817,514.537Z" style="fill:rgb(132,140,23);fill-rule:nonzero;"/>
            </g>
        </g>
    </g>
</svg>
