<?xml version="1.0" encoding="UTF-8" standalone="no"?>
<!DOCTYPE svg PUBLIC "-//W3C//DTD SVG 1.1//EN" "http://www.w3.org/Graphics/SVG/1.1/DTD/svg11.dtd">
<svg width="100%" height="100%" viewBox="0 0 600 600" version="1.1" xmlns="http://www.w3.org/2000/svg" xmlns:xlink="http://www.w3.org/1999/xlink" xml:space="preserve" xmlns:serif="http://www.serif.com/" style="fill-rule:evenodd;clip-rule:evenodd;stroke-linejoin:round;stroke-miterlimit:2;">
    <g transform="matrix(4.16667,0,0,4.16667,-4800,-300)">
        <g>
            <g transform="matrix(1,0,0,1,-415.52,-168.073)">
                <path d="M1641.03,264.073C1637.97,267.683 1638.71,272.754 1639.18,275.255L1641.03,275.255L1641.03,264.073Z" style="fill:rgb(80,114,15);fill-rule:nonzero;"/>
            </g>
            <g transform="matrix(1,0,0,1,-415.52,-168.073)">
                <path d="M1641.03,264.073C1644.08,267.683 1643.34,272.754 1642.87,275.255L1641.03,275.255L1641.03,264.073Z" style="fill:rgb(60,84,7);fill-rule:nonzero;"/>
            </g>
            <g transform="matrix(1,0,0,1,-415.52,-168.073)">
                <path d="M1649.92,347.912L1632.13,347.912L1631.19,359.103L1633.69,357.109L1635.79,359.103L1638.41,357.109L1641.03,359.103L1643.64,357.109L1646.26,359.103L1648.36,357.109L1650.86,359.103L1649.92,347.912Z" style="fill:rgb(155,96,38);fill-rule:nonzero;"/>
            </g>
            <g transform="matrix(1,0,0,1,-415.52,-168.073)">
                <path d="M1639.64,275.101L1635.55,272.434C1635.42,271.641 1634.78,268.542 1636.01,265.597C1638,267.621 1639.19,272.831 1639.64,275.101Z" style="fill:rgb(60,84,7);fill-rule:nonzero;"/>
            </g>
            <g transform="matrix(1,0,0,1,-415.52,-168.073)">
                <path d="M1642.42,275.101L1646.51,272.434C1646.64,271.641 1647.28,268.542 1646.05,265.597C1644.06,267.621 1642.87,272.831 1642.42,275.101Z" style="fill:rgb(80,114,15);fill-rule:nonzero;"/>
            </g>
            <g transform="matrix(1,0,0,1,-415.52,-168.073)">
                <path d="M1641.03,274.967L1641.03,353.508C1622.27,353.508 1603.52,343.845 1603.52,324.495C1603.52,293.814 1630.22,299.941 1634.24,280.429C1634.77,277.872 1635.2,275.153 1635.55,272.434L1641.03,274.967Z" style="fill:rgb(245,181,0);fill-rule:nonzero;"/>
            </g>
            <g transform="matrix(1,0,0,1,-415.52,-168.073)">
                <path d="M1678.54,324.495C1678.54,343.833 1659.78,353.508 1641.03,353.508L1641.03,274.967L1646.51,272.434C1646.86,275.176 1647.29,277.895 1647.82,280.429C1651.84,299.941 1678.54,293.814 1678.54,324.495Z" style="fill:rgb(247,155,20);fill-rule:nonzero;"/>
            </g>
        </g>
    </g>
</svg>
