<?xml version="1.0" encoding="UTF-8" standalone="no"?><!DOCTYPE svg PUBLIC "-//W3C//DTD SVG 1.1//EN" "http://www.w3.org/Graphics/SVG/1.1/DTD/svg11.dtd"><svg width="100%" height="100%" viewBox="0 0 605 600" version="1.1" xmlns="http://www.w3.org/2000/svg" xmlns:xlink="http://www.w3.org/1999/xlink" xml:space="preserve" xmlns:serif="http://www.serif.com/" style="fill-rule:evenodd;clip-rule:evenodd;stroke-linejoin:round;stroke-miterlimit:2;"><g><path d="M434.092,121.267l-359.092,249.962c36.121,51.042 198.379,79.363 244.183,-32.125c79.334,-193.075 196.963,-239.741 196.963,-239.741l-16.504,-23.73l-65.55,45.634Z" style="fill:#30b200;fill-rule:nonzero;"/><path d="M445.758,134.163l-293.925,324.091c46.646,41.642 149.796,3.238 230.771,-86.041c74.567,-82.221 104.304,-178.93 72.621,-226.796c25.375,-33.538 65.6,-50.992 65.6,-50.992l-21.412,-19.425l-53.655,59.163Z" style="fill:#399e1d;fill-rule:nonzero;"/><path d="M441.875,423.346c14.8,18.037 12.171,44.662 -5.867,59.458c-18.041,14.804 -44.666,12.179 -59.462,-5.862c-14.804,-18.038 -12.175,-44.667 5.866,-59.463c18.038,-14.8 44.667,-12.17 59.463,5.867Z" style="fill:#6ac116;fill-rule:nonzero;"/><path d="M409.571,422.938c12.192,6.204 -9.896,5.379 -16.1,17.571c-6.204,12.187 5.821,32.779 -6.371,26.57c-12.192,-6.204 -17.046,-21.116 -10.838,-33.308c6.205,-12.187 21.121,-17.042 33.309,-10.833Z" style="fill:#9fe05a;fill-rule:nonzero;"/><path d="M434.95,218.017c16.842,15.271 18.117,41.296 2.846,58.133c-15.267,16.834 -41.3,18.104 -58.133,2.838c-16.838,-15.271 -18.109,-41.3 -2.838,-58.134c15.271,-16.841 41.292,-18.104 58.125,-2.837Z" style="fill:#6ac116;fill-rule:nonzero;"/><path d="M403.771,222.234c12.629,4.233 -8.763,6.591 -13.004,19.229c-4.234,12.629 10.287,30.754 -2.35,26.516c-12.629,-4.237 -19.434,-17.916 -15.192,-30.55c4.238,-12.629 17.917,-19.433 30.546,-15.195Z" style="fill:#9fe05a;fill-rule:nonzero;"/><path d="M377.967,290.392c19.458,17.646 20.933,47.712 3.283,67.175c-17.642,19.458 -47.733,20.925 -67.188,3.283c-19.454,-17.65 -20.92,-47.729 -3.279,-67.187c17.646,-19.454 47.725,-20.925 67.184,-3.271Z" style="fill:#6ac116;fill-rule:nonzero;"/><path d="M341.929,295.267c14.6,4.891 -10.125,7.616 -15.025,22.217c-4.9,14.599 11.888,35.537 -2.717,30.641c-14.595,-4.892 -22.458,-20.7 -17.566,-35.304c4.904,-14.592 20.708,-22.458 35.308,-17.554Z" style="fill:#9fe05a;fill-rule:nonzero;"/><path d="M236.762,418.763c11.225,10.187 12.076,27.545 1.892,38.775c-10.183,11.233 -27.546,12.079 -38.775,1.895c-11.233,-10.183 -12.083,-27.541 -1.9,-38.779c10.188,-11.225 27.55,-12.075 38.783,-1.891Z" style="fill:#6ac116;fill-rule:nonzero;"/><path d="M215.958,421.579c8.425,2.825 -5.845,4.396 -8.666,12.83c-2.834,8.42 6.858,20.508 -1.571,17.683c-8.429,-2.829 -12.967,-11.95 -10.138,-20.375c2.83,-8.425 11.954,-12.967 20.375,-10.138Z" style="fill:#9fe05a;fill-rule:nonzero;"/><path d="M450.979,170.804c7.992,7.25 8.6,19.621 1.342,27.617c-7.25,8 -19.621,8.604 -27.617,1.35c-8,-7.263 -8.6,-19.625 -1.35,-27.625c7.254,-8 19.625,-8.6 27.625,-1.342Z" style="fill:#6ac116;fill-rule:nonzero;"/><path d="M436.158,172.804c6.005,2.013 -4.158,3.134 -6.175,9.134c-2.016,6.004 4.892,14.616 -1.12,12.6c-5.996,-2.017 -9.23,-8.513 -7.213,-14.513c2.008,-6.004 8.513,-9.233 14.508,-7.221Z" style="fill:#9fe05a;fill-rule:nonzero;"/><path d="M369.429,493.254c6.846,8.346 5.634,20.671 -2.721,27.517c-8.345,6.846 -20.67,5.633 -27.516,-2.717c-6.846,-8.346 -5.634,-20.666 2.712,-27.516c8.354,-6.85 20.671,-5.634 27.525,2.716Z" style="fill:#6ac116;fill-rule:nonzero;"/><path d="M354.483,493.059c5.634,2.875 -4.579,2.495 -7.458,8.137c-2.875,5.642 2.692,15.175 -2.95,12.296c-5.642,-2.871 -7.879,-9.771 -5.012,-15.413c2.87,-5.646 9.775,-7.891 15.42,-5.02Z" style="fill:#9fe05a;fill-rule:nonzero;"/><path d="M505.754,457.404c9.75,11.884 8.021,29.421 -3.871,39.171c-11.879,9.746 -29.421,8.021 -39.166,-3.862c-9.75,-11.884 -8.025,-29.425 3.862,-39.18c11.888,-9.749 29.421,-8.016 39.175,3.871Z" style="fill:#6ac116;fill-rule:nonzero;"/><path d="M484.479,457.129c8.021,4.092 -6.517,3.546 -10.608,11.58c-4.092,8.029 3.829,21.599 -4.204,17.508c-8.029,-4.096 -11.217,-13.913 -7.142,-21.942c4.087,-8.037 13.917,-11.229 21.954,-7.146Z" style="fill:#9fe05a;fill-rule:nonzero;"/></g></svg>