<?xml version="1.0" encoding="UTF-8" standalone="no"?>
<!DOCTYPE svg PUBLIC "-//W3C//DTD SVG 1.1//EN" "http://www.w3.org/Graphics/SVG/1.1/DTD/svg11.dtd">
<svg width="100%" height="100%" viewBox="0 0 605 596" version="1.1" xmlns="http://www.w3.org/2000/svg" xmlns:xlink="http://www.w3.org/1999/xlink" xml:space="preserve" xmlns:serif="http://www.serif.com/" style="fill-rule:evenodd;clip-rule:evenodd;stroke-linejoin:round;stroke-miterlimit:2;">
    <g transform="matrix(4.16667,0,0,4.16667,-1200,-3004.17)">
        <g>
            <g transform="matrix(1,0,0,1,-146.821,-82.523)">
                <path d="M495.893,851.043C495.893,851.043 497.686,841.265 503.602,835.17C509.518,829.073 511.972,830.148 511.972,830.148L518.482,836.961C514.828,841.117 514.192,850.883 514.828,854.531L495.893,851.043Z" style="fill:rgb(60,84,7);fill-rule:nonzero;"/>
            </g>
            <g transform="matrix(1,0,0,1,-146.821,-82.523)">
                <path d="M560.366,881.909C560.366,902.379 550.171,918.971 537.598,918.971C525.022,918.971 514.828,902.379 514.828,881.909C514.828,861.442 525.022,844.851 537.598,844.851C550.171,844.851 560.366,861.442 560.366,881.909Z" style="fill:rgb(235,86,7);fill-rule:nonzero;"/>
            </g>
            <g transform="matrix(1,0,0,1,-146.821,-82.523)">
                <path d="M498.358,881.909C498.358,902.379 488.164,918.971 475.59,918.971C463.015,918.971 452.821,902.379 452.821,881.909C452.821,861.442 463.015,844.851 475.59,844.851C488.164,844.851 498.358,861.442 498.358,881.909Z" style="fill:rgb(235,86,7);fill-rule:nonzero;"/>
            </g>
            <g transform="matrix(1,0,0,1,-146.821,-82.523)">
                <path d="M511.972,881.909C511.972,902.379 503.303,918.971 492.61,918.971C481.917,918.971 473.247,902.379 473.247,881.909C473.247,861.442 481.917,844.851 492.61,844.851C503.303,844.851 511.972,861.442 511.972,881.909Z" style="fill:rgb(234,101,10);fill-rule:nonzero;"/>
            </g>
            <g transform="matrix(1,0,0,1,-146.821,-82.523)">
                <path d="M539.939,881.909C539.939,902.379 531.271,918.971 520.577,918.971C509.884,918.971 501.215,902.379 501.215,881.909C501.215,861.442 509.884,844.851 520.577,844.851C531.271,844.851 539.939,861.442 539.939,881.909Z" style="fill:rgb(234,101,10);fill-rule:nonzero;"/>
            </g>
            <g transform="matrix(1,0,0,1,-146.821,-82.523)">
                <path d="M520.755,881.909C520.755,902.379 514.414,918.971 506.594,918.971C498.771,918.971 492.431,902.379 492.431,881.909C492.431,861.442 498.771,844.851 506.594,844.851C514.414,844.851 520.755,861.442 520.755,881.909Z" style="fill:rgb(234,132,10);fill-rule:nonzero;"/>
            </g>
        </g>
    </g>
</svg>
