<?xml version="1.0" encoding="UTF-8" standalone="no"?>
<!DOCTYPE svg PUBLIC "-//W3C//DTD SVG 1.1//EN" "http://www.w3.org/Graphics/SVG/1.1/DTD/svg11.dtd">
<svg width="100%" height="100%" viewBox="0 0 605 596" version="1.1" xmlns="http://www.w3.org/2000/svg" xmlns:xlink="http://www.w3.org/1999/xlink" xml:space="preserve" xmlns:serif="http://www.serif.com/" style="fill-rule:evenodd;clip-rule:evenodd;stroke-linejoin:round;stroke-miterlimit:2;">
    <g transform="matrix(4.16667,0,0,4.16667,-3895.83,-2104.17)">
        <g>
            <g transform="matrix(1,0,0,1,-460.512,264.885)">
                <path d="M1455.66,308.013L1458.2,306.209L1464.36,317.723C1464.54,318.054 1464.44,318.464 1464.13,318.681C1463.8,318.918 1463.33,318.839 1463.1,318.504L1455.66,308.013Z" style="fill:rgb(89,135,18);fill-rule:nonzero;"/>
            </g>
            <g transform="matrix(1,0,0,1,-460.512,264.885)">
                <path d="M1485.32,298.743C1492.35,288.807 1496.04,279.159 1497.51,274.707C1497.96,273.34 1497.16,271.878 1495.77,271.511C1494.49,271.174 1493.18,271.882 1492.76,273.132C1491.41,277.161 1488,286.081 1481.65,295.259L1485.32,298.743Z" style="fill:rgb(70,122,45);fill-rule:nonzero;"/>
            </g>
            <g transform="matrix(1,0,0,1,-460.512,264.885)">
                <path d="M1454.6,328.595C1453.93,327.957 1453.49,326.868 1454.37,325.059C1454.66,324.473 1455.13,323.608 1455.81,322.413C1457.5,319.444 1460.43,314.551 1464.52,307.87C1474.58,291.421 1473.65,275.183 1472.88,269.385C1472.72,268.112 1473.54,266.919 1474.79,266.63L1474.82,266.623C1476.24,266.294 1477.64,267.253 1477.84,268.699C1478.73,275.215 1479.71,292.603 1468.78,310.473C1460.1,324.659 1458.9,327.097 1458.74,327.506C1459.01,326.806 1458.87,325.429 1457.67,324.696C1456.51,323.982 1455.25,324.433 1454.73,324.977L1458.69,328.013C1457.01,330.196 1455.16,329.021 1454.96,328.88C1454.83,328.797 1454.71,328.702 1454.6,328.595Z" style="fill:rgb(70,122,45);fill-rule:nonzero;"/>
            </g>
            <g transform="matrix(1,0,0,1,-460.512,264.885)">
                <path d="M1457.22,319.722C1458.02,315.007 1451.39,304.328 1446.19,297.48C1445.37,296.407 1445.56,294.88 1446.61,294.033C1447.7,293.149 1449.31,293.345 1450.16,294.466C1454.12,299.69 1463.43,312.957 1462.14,320.56L1457.22,319.722Z" style="fill:rgb(70,122,45);fill-rule:nonzero;"/>
            </g>
            <g transform="matrix(1,0,0,1,-460.512,264.885)">
                <path d="M1434.9,344.063C1441.28,334.667 1433.44,315.611 1428.32,306.048C1427.46,304.432 1428.19,302.424 1429.9,301.752C1431.37,301.175 1433.03,301.809 1433.74,303.219C1437.59,310.825 1447.82,333.919 1439.03,346.869L1434.9,344.063Z" style="fill:rgb(70,122,45);fill-rule:nonzero;"/>
            </g>
            <g transform="matrix(1,0,0,1,-460.512,264.885)">
                <path d="M1474.49,308.294L1476.37,303.67C1484.21,306.856 1492.74,302.181 1500.93,296.565C1502.05,295.794 1503.59,296.074 1504.37,297.188C1505.17,298.329 1504.88,299.903 1503.73,300.69C1494.74,306.847 1484.52,312.371 1474.49,308.294Z" style="fill:rgb(70,122,45);fill-rule:nonzero;"/>
            </g>
            <g transform="matrix(1,0,0,1,-460.512,264.885)">
                <path d="M1463.52,317.314L1460.33,313.475C1460.99,312.931 1476.49,300.562 1514.72,311.624C1516.06,312.011 1516.81,313.423 1516.4,314.752L1516.4,314.753C1516.01,316.05 1514.64,316.796 1513.34,316.418C1477.62,306.081 1463.66,317.198 1463.52,317.314Z" style="fill:rgb(70,122,45);fill-rule:nonzero;"/>
            </g>
            <g transform="matrix(1,0,0,1,-460.512,264.885)">
                <path d="M1504.14,329.289C1504.47,327.942 1503.65,326.576 1502.29,326.258C1488.5,323.015 1477.74,322.215 1470.31,322.255C1468.99,322.262 1467.77,322.295 1466.66,322.346C1466.02,322.375 1463.04,322.529 1459.85,322.976C1459.01,323.093 1458.17,323.229 1457.34,323.387L1457.51,325.441L1455.69,327.36C1455.7,327.797 1455.58,328.185 1455.42,328.504L1455.27,327.797L1453.16,330.021C1454.06,330.122 1455,329.919 1455.7,329.769L1455.53,328.968C1459.4,327.679 1475.04,324.984 1501.14,331.112C1502.47,331.425 1503.81,330.616 1504.14,329.289Z" style="fill:rgb(70,122,45);fill-rule:nonzero;"/>
            </g>
            <g transform="matrix(1,0,0,1,-460.512,264.885)">
                <path d="M1444.92,338.712L1444.94,338.891C1444.93,338.891 1444.85,338.901 1444.72,338.917L1444.92,338.712Z" style="fill:rgb(105,160,80);fill-rule:nonzero;"/>
            </g>
            <g transform="matrix(1,0,0,1,-460.512,264.885)">
                <path d="M1501.1,338.964C1500.49,340.118 1499.09,340.604 1497.89,340.073C1491.97,337.439 1474.35,330.754 1456.06,335.035C1455.43,335.183 1454.83,335.324 1454.26,335.459C1450.4,336.376 1447.81,337.033 1446.06,337.502L1452.46,330.756C1453.25,330.568 1454.07,330.376 1454.93,330.175C1474.86,325.509 1493.46,332.579 1499.94,335.506C1501.25,336.099 1501.79,337.681 1501.11,338.953L1501.1,338.964Z" style="fill:rgb(105,160,80);fill-rule:nonzero;"/>
            </g>
            <g transform="matrix(1,0,0,1,-460.512,264.885)">
                <path d="M1474.18,340.788C1473.65,341.937 1472.34,342.492 1471.14,342.108C1469.45,341.569 1467.39,341.132 1465.07,340.831C1458.59,339.991 1450.05,340.212 1441.56,342.276L1441.56,342.25L1444.92,338.712L1444.83,338.04L1444.8,337.852C1445.16,337.75 1445.58,337.631 1446.06,337.502L1447.4,336.094C1449.73,335.767 1452.03,335.561 1454.26,335.459C1461.57,335.13 1468.12,335.931 1472.67,337.369C1474.1,337.82 1474.81,339.429 1474.18,340.788Z" style="fill:rgb(70,122,45);fill-rule:nonzero;"/>
            </g>
            <g transform="matrix(1,0,0,1,-460.512,264.885)">
                <path d="M1481.91,351.109C1481.22,352.268 1479.73,352.672 1478.56,352.017C1465.09,344.539 1453.5,342.818 1446.11,342.985C1443.67,343.04 1441.69,343.299 1440.25,343.628L1444.92,338.712L1444.83,338.041C1445.07,338.028 1445.33,338.015 1445.58,338.008C1447.49,337.941 1449.59,337.993 1451.86,338.195C1455.36,338.506 1459.85,339.238 1465.07,340.831C1469.83,342.283 1475.2,344.446 1480.97,347.649C1482.2,348.332 1482.63,349.892 1481.91,351.101L1481.91,351.109Z" style="fill:rgb(105,160,80);fill-rule:nonzero;"/>
            </g>
            <g transform="matrix(1,0,0,1,-460.512,264.885)">
                <path d="M1431.08,349.023L1431.08,349.034L1431.07,349.025L1431.08,349.023Z" style="fill:rgb(70,122,45);fill-rule:nonzero;"/>
            </g>
            <g transform="matrix(1,0,0,1,-460.512,264.885)">
                <path d="M1470.78,352.763C1470.24,354.011 1468.79,354.594 1467.54,354.076C1451.5,347.469 1441.78,347.311 1437.08,347.942C1436.68,347.993 1436.32,348.053 1435.99,348.115C1434.42,348.411 1433.67,348.757 1433.64,348.771C1433.8,348.679 1434,348.503 1434.18,348.262C1434.81,348.154 1435.45,348.069 1436.09,348.008L1441.15,342.679C1441.25,342.679 1441.34,342.68 1441.44,342.68C1442.78,342.696 1444.33,342.784 1446.11,342.985C1451.67,343.608 1459.41,345.333 1469.43,349.46C1470.72,349.992 1471.33,351.48 1470.78,352.763Z" style="fill:rgb(70,122,45);fill-rule:nonzero;"/>
            </g>
            <g transform="matrix(1,0,0,1,-460.512,264.885)">
                <path d="M1431.08,349.023L1431.08,349.034L1431.07,349.025L1431.08,349.023Z" style="fill:rgb(70,122,45);fill-rule:nonzero;"/>
            </g>
            <g transform="matrix(1,0,0,1,-460.512,264.885)">
                <path d="M1460.35,363.707C1459.25,364.403 1457.79,364.146 1457.02,363.101C1449.46,352.88 1438.23,350.973 1430.59,354.563L1430.35,354.057L1435.99,348.115C1434.42,348.41 1433.67,348.757 1433.64,348.771C1433.8,348.679 1434,348.503 1434.18,348.262C1434.81,348.154 1435.45,348.069 1436.09,348.009C1436.42,347.979 1436.75,347.955 1437.08,347.942C1445.23,347.525 1454.37,351.128 1461.02,360.113C1461.88,361.278 1461.57,362.931 1460.35,363.707Z" style="fill:rgb(70,122,45);fill-rule:nonzero;"/>
            </g>
            <g transform="matrix(1,0,0,1,-460.512,264.885)">
                <path d="M1482.3,301.425L1479.32,297.418C1487.03,291.696 1502.57,288.821 1508.7,287.872C1510.09,287.657 1511.38,288.636 1511.56,290.032L1511.56,290.039C1511.72,291.375 1510.8,292.601 1509.47,292.809C1503.71,293.709 1489.05,296.409 1482.3,301.425Z" style="fill:rgb(70,122,45);fill-rule:nonzero;"/>
            </g>
            <g transform="matrix(1,0,0,1,-460.512,264.885)">
                <path d="M1485.13,298.278L1482.57,293.996C1494.17,287.053 1507.25,280.199 1512.39,277.55C1513.62,276.915 1515.14,277.407 1515.76,278.643C1516.38,279.867 1515.9,281.358 1514.68,281.985C1509.6,284.604 1496.62,291.402 1485.13,298.278Z" style="fill:rgb(105,160,80);fill-rule:nonzero;"/>
            </g>
            <g transform="matrix(1,0,0,1,-460.512,264.885)">
                <path d="M1419.65,362.724L1469.94,308.926C1484.5,292.944 1482.74,267.653 1481.79,259.916C1481.63,258.605 1482.53,257.398 1483.82,257.157C1485.24,256.896 1486.58,257.876 1486.76,259.303C1487.84,267.777 1489.73,294.612 1473.63,312.287L1423.34,366.085L1419.65,362.724Z" style="fill:rgb(105,160,80);fill-rule:nonzero;"/>
            </g>
            <g transform="matrix(1,0,0,1,-460.512,264.885)">
                <path d="M1479.24,304.492L1475.93,300.759C1490.58,287.756 1499.2,276.878 1502.35,272.62C1503.14,271.553 1504.63,271.294 1505.74,272.028L1505.74,272.033C1506.93,272.823 1507.22,274.444 1506.37,275.593C1503.07,280.074 1494.34,291.096 1479.24,304.492Z" style="fill:rgb(105,160,80);fill-rule:nonzero;"/>
            </g>
            <g transform="matrix(1,0,0,1,-460.512,264.885)">
                <path d="M1459.99,320.033C1461.58,310.291 1463.74,275.187 1464.29,265.709C1464.37,264.382 1465.47,263.352 1466.8,263.371L1466.84,263.371C1468.25,263.389 1469.36,264.579 1469.28,265.991C1468.74,275.866 1466.57,310.725 1464.92,320.837L1459.99,320.033Z" style="fill:rgb(105,160,80);fill-rule:nonzero;"/>
            </g>
            <g transform="matrix(1,0,0,1,-460.512,264.885)">
                <path d="M1445.91,334.789C1456.09,317.403 1454.97,296.913 1454.24,290.128C1454.1,288.823 1455,287.634 1456.29,287.409L1456.3,287.407C1457.72,287.161 1459.05,288.156 1459.21,289.582C1460.04,296.979 1461.23,318.509 1450.21,337.312L1445.91,334.789Z" style="fill:rgb(105,160,80);fill-rule:nonzero;"/>
            </g>
            <g transform="matrix(1,0,0,1,-460.512,264.885)">
                <path d="M1429.04,352.676C1427.2,354.695 1425.79,356.227 1424.71,357.392L1428.33,360.827C1429.54,359.525 1431.01,357.926 1432.73,356.033C1440.8,347.159 1433.9,334.083 1430.58,328.887C1429.79,327.659 1428.12,327.367 1426.96,328.25C1425.92,329.039 1425.67,330.488 1426.37,331.584C1429.11,335.863 1434.77,346.375 1429.04,352.676Z" style="fill:rgb(105,160,80);fill-rule:nonzero;"/>
            </g>
            <g transform="matrix(1,0,0,1,-460.512,264.885)">
                <path d="M1431.08,349.023L1431.08,349.034L1431.07,349.025L1431.08,349.023Z" style="fill:rgb(70,122,45);fill-rule:nonzero;"/>
            </g>
            <g transform="matrix(1,0,0,1,-460.512,264.885)">
                <path d="M1492.63,316.033C1485.14,312.61 1477.01,313.116 1470.87,314.42L1463.93,321.73C1465.19,321.232 1466.63,320.719 1468.2,320.252C1469.18,319.955 1470.21,319.68 1471.28,319.436C1476.54,318.24 1483.94,317.559 1490.55,320.568C1491.7,321.095 1493.07,320.654 1493.72,319.559C1494.46,318.293 1493.97,316.643 1492.63,316.033Z" style="fill:rgb(105,160,80);fill-rule:nonzero;"/>
            </g>
        </g>
    </g>
</svg>
