<?xml version="1.0" encoding="UTF-8" standalone="no"?>
<!DOCTYPE svg PUBLIC "-//W3C//DTD SVG 1.1//EN" "http://www.w3.org/Graphics/SVG/1.1/DTD/svg11.dtd">
<svg width="100%" height="100%" viewBox="0 0 600 596" version="1.1" xmlns="http://www.w3.org/2000/svg" xmlns:xlink="http://www.w3.org/1999/xlink" xml:space="preserve" xmlns:serif="http://www.serif.com/" style="fill-rule:evenodd;clip-rule:evenodd;stroke-linejoin:round;stroke-miterlimit:2;">
    <g transform="matrix(4.16667,0,0,4.16667,-4800,-1204.17)">
        <g>
            <g transform="matrix(1,0,0,1,-421.347,-326.694)">
                <path d="M1672.19,693.512C1671.28,694.491 1650.6,723.821 1650.83,737.741C1649.96,736.871 1648.02,736.271 1645.77,736.262L1645.69,635.672L1645.73,635.672C1653.46,635.491 1660.62,641.131 1662.21,649.461C1671.24,644.81 1679.83,650.561 1679.84,660.931C1679.85,670.051 1674.22,674.161 1673.51,676.561C1678.84,680.291 1677.43,687.842 1672.19,693.512Z" style="fill:rgb(91,117,20);fill-rule:nonzero;"/>
            </g>
            <g transform="matrix(1,0,0,1,-421.347,-326.694)">
                <path d="M1645.73,635.652L1645.73,736.262C1643.49,736.262 1641.56,736.842 1640.66,737.701C1640.84,723.771 1620.18,694.502 1619.27,693.521C1614.02,687.851 1612.61,680.301 1617.94,676.561C1617.22,674.172 1611.59,670.071 1611.59,660.941C1611.59,650.571 1620.18,644.821 1629.21,649.461C1630.8,641.121 1637.97,635.461 1645.73,635.652Z" style="fill:rgb(105,142,25);fill-rule:nonzero;"/>
            </g>
            <g transform="matrix(1,0,0,1,-421.347,-326.694)">
                <path d="M1662.25,694.138C1654.95,692.736 1649.04,698.447 1646.46,701.521L1646.46,691.929C1647.27,690.297 1651.71,682.288 1659.9,682.564C1660.28,682.576 1660.61,682.303 1660.65,681.919L1660.65,681.894C1660.68,681.495 1660.38,681.135 1659.98,681.119C1653.05,680.865 1648.59,685.889 1646.46,689.082L1646.46,680.139C1647.15,678.887 1650.2,673.862 1654.79,672.744C1655.15,672.658 1655.36,672.304 1655.31,671.947L1655.3,671.926C1655.24,671.508 1654.82,671.247 1654.41,671.349C1650.71,672.263 1648,675.269 1646.46,677.435L1646.46,663.099C1646.46,662.656 1646.1,662.299 1645.66,662.299C1645.21,662.299 1644.86,662.656 1644.86,663.099L1644.86,677.243C1643.29,675.096 1640.63,672.236 1637.04,671.349C1636.63,671.247 1636.22,671.508 1636.15,671.926L1636.15,671.947C1636.09,672.304 1636.31,672.658 1636.66,672.744C1641,673.803 1643.96,678.347 1644.86,679.896L1644.86,688.879C1642.68,685.68 1638.26,680.871 1631.47,681.119C1631.07,681.135 1630.77,681.495 1630.8,681.894L1630.8,681.919C1630.84,682.303 1631.17,682.576 1631.56,682.564C1639.36,682.301 1643.76,689.569 1644.86,691.66L1644.86,701.357C1642.2,698.25 1636.38,692.762 1629.2,694.138C1628.81,694.213 1628.57,694.619 1628.67,695.008L1628.67,695.031C1628.77,695.403 1629.13,695.621 1629.51,695.552C1637.13,694.136 1643.37,701.696 1644.86,703.684L1644.86,713.66C1642.68,710.462 1638.26,705.652 1631.47,705.902C1631.07,705.916 1630.77,706.277 1630.8,706.677L1630.8,706.701C1630.84,707.084 1631.17,707.359 1631.56,707.346C1639.36,707.083 1643.76,714.351 1644.86,716.442L1644.86,722.627C1643.35,720.568 1640.57,717.849 1636.44,718.002C1636.18,718.01 1635.98,718.246 1636.01,718.506L1636.01,718.521C1636.03,718.771 1636.24,718.949 1636.5,718.941C1641.04,718.789 1643.81,722.555 1644.86,724.327L1644.86,736.262L1646.46,736.262L1646.46,724.568C1647.38,722.926 1650.19,718.781 1654.96,718.941C1655.21,718.949 1655.42,718.771 1655.45,718.521L1655.45,718.506C1655.47,718.246 1655.28,718.01 1655.01,718.002C1650.76,717.844 1647.93,720.743 1646.46,722.818L1646.46,716.712C1647.27,715.08 1651.71,707.07 1659.9,707.346C1660.28,707.359 1660.61,707.084 1660.65,706.701L1660.65,706.677C1660.68,706.277 1660.38,705.916 1659.98,705.902C1653.05,705.647 1648.59,710.672 1646.46,713.863L1646.46,703.871C1647.65,702.237 1654.06,694.087 1661.94,695.552C1662.32,695.621 1662.69,695.403 1662.78,695.031L1662.79,695.008C1662.89,694.619 1662.65,694.213 1662.25,694.138Z" style="fill:rgb(133,160,60);fill-rule:nonzero;"/>
            </g>
        </g>
    </g>
</svg>
