<?xml version="1.0" encoding="UTF-8" standalone="no"?>
<!DOCTYPE svg PUBLIC "-//W3C//DTD SVG 1.1//EN" "http://www.w3.org/Graphics/SVG/1.1/DTD/svg11.dtd">
<svg width="100%" height="100%" viewBox="0 0 600 596" version="1.1" xmlns="http://www.w3.org/2000/svg" xmlns:xlink="http://www.w3.org/1999/xlink" xml:space="preserve" xmlns:serif="http://www.serif.com/" style="fill-rule:evenodd;clip-rule:evenodd;stroke-linejoin:round;stroke-miterlimit:2;">
    <g transform="matrix(4.16667,0,0,4.16667,-2100,-2104.17)">
        <g>
            <g transform="matrix(1,0,0,1,-702.88,-110.968)">
                <path d="M1267,632.916L1272.54,632.324L1279.34,710.229L1275.87,711.306L1267,632.916Z" style="fill:rgb(0,124,62);fill-rule:nonzero;"/>
            </g>
            <g transform="matrix(1,0,0,1,-702.88,-110.968)">
                <path d="M1279.62,740.261C1279.54,742.008 1278.02,743.339 1276.28,743.193C1274.53,743.046 1272.32,741.383 1272.55,739.636C1272.91,736.916 1273.14,734.265 1273.57,731.709C1274.73,724.765 1275.3,719.775 1276.27,713.092C1278.06,700.799 1279.17,688.613 1280.35,673.544C1281.29,661.607 1282.27,647.847 1283.44,630.732L1287.91,631.105C1286.02,649.136 1284.67,662.824 1283.67,673.822C1282.03,691.863 1281.35,702.652 1280.82,713.473C1280.54,719.338 1280.3,725.205 1279.99,732.247C1279.88,734.754 1279.76,737.406 1279.62,740.261Z" style="fill:rgb(0,124,62);fill-rule:nonzero;"/>
            </g>
            <g transform="matrix(1,0,0,1,-702.88,-110.968)">
                <path d="M1276.46,713.224C1276.46,713.224 1278.75,653.068 1275.47,631.525L1278.31,633.972C1278.85,634.076 1281.13,695.14 1276.46,713.224Z" style="fill:rgb(0,124,62);fill-rule:nonzero;"/>
            </g>
            <g transform="matrix(1,0,0,1,-702.88,-110.968)">
                <path d="M1272.37,738.457C1271.86,740.128 1270.06,741.041 1268.41,740.467C1266.75,739.89 1265.03,737.732 1265.68,736.096C1266.7,733.549 1267.59,731.041 1268.64,728.67C1271.48,722.232 1273.27,717.539 1275.87,711.307C1280.66,699.842 1297.88,649.591 1303.26,633.302L1307.49,634.771C1301.19,651.769 1283.38,702.452 1280.19,712.805C1278.46,718.416 1276.77,724.04 1274.72,730.783C1273.99,733.184 1273.22,735.724 1272.37,738.457Z" style="fill:rgb(14,158,28);fill-rule:nonzero;"/>
            </g>
            <g transform="matrix(1,0,0,1,-702.88,-110.968)">
                <path d="M1269.43,740.639C1270.74,740.638 1271.97,739.788 1272.37,738.457C1272.55,737.874 1272.73,737.301 1272.9,736.735L1272.9,736.76C1272.73,737.317 1272.56,737.883 1272.38,738.457C1271.97,739.789 1270.74,740.639 1269.43,740.639ZM1265.79,735.82C1266.44,734.193 1267.01,732.643 1267.64,731.067C1267.02,732.618 1266.43,734.21 1265.79,735.82Z" style="fill:white;fill-rule:nonzero;"/>
            </g>
            <g transform="matrix(1,0,0,1,-702.88,-110.968)">
                <path d="M1272.9,736.76L1272.9,736.735C1273.54,734.648 1274.15,732.672 1274.72,730.783L1274.72,730.781L1274.73,730.783C1274.15,732.68 1273.54,734.663 1272.9,736.76Z" style="fill:rgb(74,162,118);fill-rule:nonzero;"/>
            </g>
            <g transform="matrix(1,0,0,1,-702.88,-110.968)">
                <path d="M1269.43,740.639C1269.09,740.639 1268.75,740.584 1268.42,740.467C1266.75,739.89 1265.03,737.732 1265.68,736.096C1265.72,736.004 1265.76,735.912 1265.79,735.82C1266.43,734.21 1267.02,732.618 1267.64,731.067C1267.95,730.279 1268.28,729.484 1268.64,728.67L1274.72,730.781L1274.72,730.783C1274.15,732.672 1273.54,734.648 1272.9,736.735C1272.73,737.301 1272.55,737.874 1272.37,738.457C1271.97,739.788 1270.74,740.638 1269.43,740.639Z" style="fill:rgb(84,186,94);fill-rule:nonzero;"/>
            </g>
            <g transform="matrix(1,0,0,1,-702.88,-110.968)">
                <path d="M1276.03,711.482L1292.33,631.525L1297.48,632.916C1297.48,632.916 1284.51,694.875 1276.03,711.482Z" style="fill:rgb(14,158,28);fill-rule:nonzero;"/>
            </g>
            <g transform="matrix(1,0,0,1,-702.88,-110.968)">
                <path d="M1279.57,713.006C1279.57,713.006 1301.27,657.931 1313.18,639.683L1310.72,640.107C1310.72,640.107 1283.38,694.75 1279.57,713.006Z" style="fill:rgb(14,158,28);fill-rule:nonzero;"/>
            </g>
            <g transform="matrix(1,0,0,1,-702.88,-110.968)">
                <path d="M1289.26,736.739C1288.32,734.037 1287.45,731.529 1286.62,729.161C1284.29,722.508 1282.33,716.972 1280.42,711.422C1279.73,709.444 1263.87,632.929 1263.87,632.929L1259.58,634.453C1259.58,634.453 1267.37,665.654 1273.17,689.437C1271.72,684.802 1261.33,649.761 1256.37,632.324L1252.09,633.634C1257.37,649.959 1267.88,683.364 1269.12,687.475L1251.75,638.995L1246.1,638.014C1250.17,644.923 1255.32,656.875 1260.22,669.222L1245.82,639.653L1244.58,641.821C1244.58,641.821 1275.88,712.066 1276.05,712.76C1277.63,719.326 1278.95,724.17 1280.46,731.046C1281.01,733.579 1281.78,736.126 1282.46,738.783C1282.9,740.492 1285.56,741.216 1287.24,740.701C1288.91,740.189 1289.83,738.391 1289.26,736.739Z" style="fill:rgb(14,158,28);fill-rule:nonzero;"/>
            </g>
            <g transform="matrix(1,0,0,1,-702.88,-110.968)">
                <path d="M1288.29,740.146C1289.26,739.352 1289.69,738.002 1289.26,736.739C1288.32,734.037 1287.45,731.529 1286.62,729.161L1286.62,729.158C1287.45,731.527 1288.32,734.033 1289.26,736.736C1289.7,738 1289.26,739.353 1288.29,740.146ZM1282.48,738.861L1282.48,738.86L1282.48,738.861ZM1282.48,738.838C1282.47,738.831 1282.47,738.824 1282.47,738.817C1282.47,738.824 1282.47,738.831 1282.48,738.838ZM1282.43,738.659L1282.43,738.658L1282.43,738.659ZM1282.4,738.536L1282.4,738.531L1282.4,738.536ZM1282.37,738.42C1282.37,738.412 1282.36,738.404 1282.36,738.396C1282.36,738.404 1282.37,738.412 1282.37,738.42ZM1282.34,738.304C1282.33,738.288 1282.33,738.272 1282.33,738.256C1282.33,738.272 1282.33,738.288 1282.34,738.304ZM1282.31,738.204C1281.89,736.579 1281.45,735.044 1281.04,733.456C1281.44,735.014 1281.89,736.59 1282.31,738.204Z" style="fill:white;fill-rule:nonzero;"/>
            </g>
            <g transform="matrix(1,0,0,1,-702.88,-110.968)">
                <path d="M1286.07,740.861C1284.56,740.861 1282.87,740.156 1282.48,738.861L1282.48,738.838C1282.47,738.831 1282.47,738.824 1282.47,738.817C1282.47,738.805 1282.46,738.794 1282.46,738.783C1282.45,738.741 1282.44,738.7 1282.43,738.659L1282.43,738.658C1282.42,738.617 1282.41,738.577 1282.4,738.536L1282.4,738.531C1282.39,738.494 1282.38,738.457 1282.37,738.42C1282.37,738.412 1282.36,738.404 1282.36,738.396C1282.35,738.366 1282.35,738.335 1282.34,738.304C1282.33,738.288 1282.33,738.272 1282.33,738.256C1282.32,738.238 1282.32,738.221 1282.31,738.204C1281.89,736.59 1281.44,735.014 1281.04,733.456C1280.84,732.671 1280.64,731.874 1280.46,731.046C1280.49,731.047 1280.52,731.047 1280.55,731.047C1282.3,731.047 1284.89,730.29 1286.62,729.161C1287.45,731.529 1288.32,734.037 1289.26,736.739C1289.69,738.002 1289.26,739.352 1288.29,740.146C1287.99,740.388 1287.64,740.578 1287.25,740.697C1286.89,740.807 1286.49,740.861 1286.07,740.861Z" style="fill:rgb(84,186,94);fill-rule:nonzero;"/>
            </g>
            <g transform="matrix(1,0,0,1,-702.88,-110.968)">
                <path d="M1281.75,712.961L1274.12,713.078L1274.08,710.004L1281.7,709.888L1281.75,712.961Z" style="fill:rgb(247,148,30);fill-rule:nonzero;"/>
            </g>
            <g transform="matrix(1,0,0,1,-702.88,-110.968)">
                <path d="M1282.03,710.469C1284.77,710.469 1286.57,709.546 1287.81,707.947C1289.12,706.258 1288.44,704.406 1284.71,707.119C1282.91,708.432 1281.83,710.469 1282.03,710.469ZM1281.68,711.779C1281.77,713.666 1284.48,717.324 1288.23,718.008C1292.12,718.758 1290.85,715.933 1288.5,713.931C1286.28,712.047 1282,711.437 1281.68,711.779ZM1274.15,722.222L1273.63,721.15C1274.06,720.937 1274.44,720.568 1274.8,720.209C1279.22,715.685 1279.91,712.392 1280.5,711.392C1280.55,710.851 1280.73,710.267 1281.05,709.63C1281.73,708.274 1282.75,707.072 1284.01,706.156C1285.98,704.725 1287.42,704.248 1288.42,704.694C1290.9,705.799 1289.28,709.541 1285.56,711.092C1290.59,712.541 1293.04,717.156 1291.3,718.86C1289.75,720.367 1283.15,718.658 1280.93,713.453C1280.16,715.332 1278.16,718.472 1275.65,721.042C1275.24,721.459 1274.75,721.926 1274.15,722.222Z" style="fill:rgb(252,161,61);fill-rule:nonzero;"/>
            </g>
        </g>
    </g>
</svg>
