<?xml version="1.0" encoding="UTF-8" standalone="no"?>
<!DOCTYPE svg PUBLIC "-//W3C//DTD SVG 1.1//EN" "http://www.w3.org/Graphics/SVG/1.1/DTD/svg11.dtd">
<svg width="100%" height="100%" viewBox="0 0 592 596" version="1.1" xmlns="http://www.w3.org/2000/svg" xmlns:xlink="http://www.w3.org/1999/xlink" xml:space="preserve" xmlns:serif="http://www.serif.com/" style="fill-rule:evenodd;clip-rule:evenodd;stroke-linejoin:round;stroke-miterlimit:2;">
    <g transform="matrix(4.16667,0,0,4.16667,-308.333,-1204.17)">
        <g>
            <g transform="matrix(1,0,0,1,26.1692,37.6665)">
                <path d="M164.252,327.038C160.302,348.687 142.66,366.703 117.239,366.724L117.199,366.724C90.34,366.724 73.805,348.736 70.146,327.038C67.318,310.274 84.08,292.743 97.909,293.031C102.301,293.117 109.08,295.116 114.315,295.713L114.437,295.727C121.852,296.693 128.521,292.743 134.485,292.743C147.692,292.743 167.685,308.221 164.252,327.038Z" style="fill:rgb(237,28,36);fill-rule:nonzero;"/>
            </g>
            <g transform="matrix(1,0,0,1,26.1692,37.6665)">
                <path d="M116.551,295.841C115.851,295.831 115.15,295.82 114.437,295.727L114.315,295.713C109.08,295.116 102.301,293.117 97.909,293.031C84.08,292.743 67.318,310.274 70.146,327.038C73.775,348.557 90.083,366.404 116.551,366.697L116.551,295.841Z" style="fill:rgb(209,13,42);fill-rule:nonzero;"/>
            </g>
            <g transform="matrix(1,0,0,1,26.1692,37.6665)">
                <path d="M131.585,281.357C131.149,281.125 128.75,285.873 123.313,290.396C122.067,291.435 121.087,292.414 120.277,293.336C120.615,291.862 120.191,290.276 119.796,288.92C119.701,288.595 116.825,277.943 116.545,277.943C116.027,277.943 116.364,283.129 114.587,289.411C114.122,291.054 113.973,292.493 113.671,293.774C112.813,292.734 111.691,291.6 110.245,290.398C104.806,285.871 102.41,281.124 101.973,281.356C101.784,281.456 107.043,297.022 109.167,298.69C111.222,300.479 124.277,302.119 126.847,296.601C126.934,296.414 131.787,281.464 131.585,281.357Z" style="fill:rgb(0,148,68);fill-rule:nonzero;"/>
            </g>
            <g transform="matrix(1,0,0,1,26.1692,37.6665)">
                <path d="M138.114,309.209C139.832,310.004 154.302,313.378 154.845,318.492C154.193,312.36 149.802,302.84 141.932,301.103C136.153,299.827 131.3,306.053 138.114,309.209Z" style="fill:rgb(255,197,197);fill-rule:nonzero;"/>
            </g>
        </g>
    </g>
</svg>
